<?xml version="1.0" encoding="utf-8"?>
<!-- Generator: Adobe Illustrator 23.0.2, SVG Export Plug-In . SVG Version: 6.00 Build 0)  -->
<svg version="1.1" id="Layer_1" xmlns="http://www.w3.org/2000/svg" xmlns:xlink="http://www.w3.org/1999/xlink" x="0px" y="0px"
	 viewBox="0 0 240.4 226.4" style="enable-background:new 0 0 240.4 226.4;" xml:space="preserve">
<style type="text/css">
	.st0{fill:#EA8E10;}
	.st1{fill:#231F20;}
	.st2{fill:#F5A909;}
	.st3{fill:#12100B;stroke:#4D4947;stroke-width:6;}
	.st4{fill:#D0D0D0;stroke:#231F20;stroke-width:4;}
	.st5{fill:#FFFFFF;stroke:#231F20;stroke-width:2;}
	.st6{fill:none;stroke:#4D4947;stroke-width:5;}
	.st7{fill:#FFFFFF;}
	.st8{clip-path:url(#SVGID_2_);}
	.st9{fill:#09080D;}
	.st10{fill:#FBEADF;}
	.st11{fill:#DE0222;}
	.st12{fill:#D90423;}
	.st13{fill:#DA0423;}
	.st14{fill:#CF0725;}
	.st15{fill:#D20826;}
	.st16{fill:#EEE3D9;}
	.st17{fill:#110E11;}
	.st18{fill:#EF9C8B;}
	.st19{fill:#0E0D0F;}
	.st20{fill:#0F0D10;}
	.st21{fill:#EF9C8C;}
	.st22{fill:none;stroke:#13110C;stroke-width:6;}
	.st23{fill:#E30613;stroke:#DD1215;stroke-width:0.2339;}
	.st24{font-family:'Arial-Black';}
	.st25{font-size:18.2247px;}
</style>
<defs>
	
	<script  language="JavaScript"></script>
</defs>
<script  type="text/JavaScript">
	<![CDATA[
function notify( ref, type ) {
    var event = document.createEvent("CustomEvent");
    event.initEvent(type,true,true);
    ref.dispatchEvent(event);
}

		
		
		
		
		
		
		
		
		
		
		
		
		]]>
</script>
<g>
	<g>
		<path class="st0" d="M168,16.7c-13.3-2-30.5-3.2-49.4-3.2c-17.4,0-33.4,1-46.2,2.8v24.2H36.7v93.1h167.1V40.9H168L168,16.7
			L168,16.7z"/>
	</g>
	<path class="st1" d="M168,47.9V16.8c18.3,3.2,30.1,8.2,30.1,13.8c3.1,0,5.6,2.6,5.6,5.8v11.5H168z"/>
	<path class="st1" d="M72.4,47.4V16.3c-18.3,3.2-30.1,8.2-30.1,13.8c-3.1,0-5.6,2.6-5.6,5.8v11.5L72.4,47.4L72.4,47.4z"/>
</g>
<path class="st2" d="M213.1,132.8c-4.2-4.2-12.8-4.5-19.1-8.1c-25.6-14.4-43.3-19-73.2-19c-0.2,0-0.4,0-0.6,0c-0.2,0-0.4,0-0.6,0
	c-29.9,0-47.6,4.6-73.2,19c-6.4,3.6-14.9,3.9-19.1,8.1c-12,12-4.4,38-4.4,38c0,0.7,0.6,1.2,1.2,1.2h96h96c0.7,0,1.2-0.6,1.2-1.2
	C217.5,170.8,225.1,144.8,213.1,132.8z"/>
<path class="st2" d="M143.3,14.2c0-2.9-9.3-9.3-23.2-9.3c-13.9,0-23,6.5-23,9.3"/>
<path class="st1" d="M216,172h-18.5h-39.8H81.9H42.7H24.4c-0.7,0-1.3,0.8-1.3,1.9l3.5,8.5c0,1.1,0.6,2,1.3,2h13.4v26.1
	c0,0.9,0.6,1.5,1.4,1.5h39.2c0.8,0,1.4-0.7,1.4-1.5v-16.3h72.9v16.3c0,0.9,0.6,1.5,1.4,1.5h39.8c0.8,0,1.4-0.7,1.4-1.5v-26.1h13.6
	c0.7,0,1.3-0.9,1.3-2l3.5-8.5C217.3,172.8,216.7,172,216,172z"/>
<path class="st3" d="M162.7,155.4c0,3.9-3.2,7.1-7.1,7.1H84.8c-3.9,0-7.1-3.2-7.1-7.1v-26.6c0-3.9,3.2-7.1,7.1-7.1h70.8
	c3.9,0,7.1,3.2,7.1,7.1L162.7,155.4L162.7,155.4z"/>
<path class="st4" d="M213.4,147.8c0,8.4-6.8,15.3-15.3,15.3c-8.4,0-15.2-6.8-15.2-15.3c0-8.4,6.8-15.3,15.2-15.3
	C206.6,132.5,213.4,139.4,213.4,147.8z"/>
<path class="st5" d="M207.6,147.8c0,5.2-4.2,9.4-9.4,9.4c-5.2,0-9.4-4.2-9.4-9.4c0-5.2,4.2-9.4,9.4-9.4
	C203.3,138.3,207.6,142.6,207.6,147.8z"/>
<path class="st4" d="M57.6,147.8c0,8.4-6.8,15.3-15.3,15.3c-8.4,0-15.2-6.8-15.2-15.3c0-8.4,6.8-15.3,15.2-15.3
	C50.8,132.5,57.6,139.4,57.6,147.8z"/>
<path class="st5" d="M51.8,147.8c0,5.2-4.2,9.4-9.4,9.4c-5.2,0-9.4-4.2-9.4-9.4c0-5.2,4.2-9.4,9.4-9.4
	C47.5,138.3,51.8,142.6,51.8,147.8z"/>
<line class="st6" x1="79.8" y1="138.5" x2="160.6" y2="138.5"/>
<line class="st6" x1="79.8" y1="130.1" x2="160.6" y2="130.1"/>
<line class="st6" x1="79.8" y1="146.9" x2="160.6" y2="146.9"/>
<line class="st6" x1="79.8" y1="155.3" x2="160.6" y2="155.3"/>
<path class="st7" d="M115.5,91.8c0,0.7-0.6,1.2-1.2,1.2H43.6c-0.7,0-1.2-0.6-1.2-1.2V57.4c0-0.7,0.6-1.2,1.2-1.2h70.7
	c0.7,0,1.2,0.6,1.2,1.2V91.8z"/>
<path class="st7" d="M198.1,91.8c0,0.7-0.6,1.2-1.2,1.2h-70.7c-0.7,0-1.3-0.6-1.3-1.2V57.4c0-0.7,0.6-1.2,1.3-1.2h70.7
	c0.7,0,1.2,0.6,1.2,1.2V91.8z"/>
<g>
	<g>
		<defs>
			<path id="SVGID_1_" d="M198.1,91.8c0,0.7-0.6,1.2-1.2,1.2h-70.7c-0.7,0-1.3-0.6-1.3-1.2V57.4c0-0.7,0.6-1.2,1.3-1.2h70.7
				c0.7,0,1.2,0.6,1.2,1.2V91.8z"/>
		</defs>
		<clipPath id="SVGID_2_">
			<use xlink:href="#SVGID_1_"  style="overflow:visible;"/>
		</clipPath>
		<g class="st8">
			<path class="st9" d="M153.7,104.9c-0.1-2.1-0.3-4.3-0.4-6.4c0-0.3-0.1-0.3-0.4-0.4c-0.9-0.3-1.8-0.6-2.6-1
				c-0.2-0.1-0.4-0.1-0.6,0c-1.5,0.7-3,0.5-4.1-0.5c-1.1-1.1-1.3-2.6-0.6-4.1c0-0.1,0.1-0.2,0.1-0.3c-0.3-0.7,0.2-1.1,0.6-1.5
				c1.7-1.6,3.4-3.2,5.4-4.5c-0.4-0.1-0.7-0.3-1-0.4c-2.6-1.2-4.9-2.9-6.8-5c-1.6-1.9-2.3-4.2-2.3-6.6c0-0.8-0.5-1.3-0.8-1.9
				c-0.1-0.2-0.4-0.1-0.6-0.1c-4.2,0.3-7.8-2.3-8.6-6.4c-0.8-3.9,1.4-7.7,5.2-9c3.6-1.3,7.8,0.4,9.6,3.8c0.4,0.8,0.4,0.8,1.1,0.2
				c3.1-2.5,6.7-3.9,10.7-4.5c5.3-0.8,10.5,0,15.3,2.6c1.1,0.6,2.1,1.3,3,2.1c0.4,0.4,0.6,0.3,0.9-0.2c1.5-3.1,4.8-4.8,8.1-4.4
				c3.4,0.5,6.1,3,6.8,6.3c1,5.1-3.1,9.8-8.5,9.4c-0.5,0-0.7,0.1-0.9,0.5c-0.4,0.6-0.5,1.3-0.5,2c-0.2,3.6-2,6.4-4.8,8.5
				c-1.6,1.2-3.2,2.4-5.3,3c1.9,1.3,3.5,2.7,5.1,4.2c0.3,0.3,0.5,0.5,0.8,0.8c0.1,0.1,0.3,0.3,0.3,0.5c-0.2,0.6,0.2,1,0.3,1.5
				c0.4,1.3,0,2.8-1.1,3.6c-1.1,0.9-2.4,1-3.7,0.4c-0.3-0.2-0.6-0.2-0.9,0c-0.8,0.4-1.6,0.7-2.4,0.9c-0.3,0.1-0.4,0.2-0.4,0.5
				c-0.1,2.1-0.3,4.2-0.4,6.3c0,0.2-0.1,0.4-0.1,0.6c-0.3,1.6-1.7,2.7-3.3,2.7c-1.5,0-3-1-3.4-2.5c-0.1-0.4-0.1-0.8-0.2-1.2
				c-0.1-1.7-0.2-3.4-0.3-5.1c0-0.3-0.2-0.3-0.4-0.3c-0.2,0-0.5-0.1-0.5,0.3c-0.1,1.7-0.2,3.4-0.3,5.1c0,0.1,0,0.3,0,0.4
				c-0.2,2.2-2.2,3.7-4.3,3.1C154.7,107.6,153.9,106.5,153.7,104.9z M172.3,94.7c-0.1,0.1-0.1,0.2-0.2,0.3c-0.1,0.2-0.1,0.3,0,0.4
				c0.2,0.1,0.4,0,0.4-0.2c1.1-0.9,2-2,3.1-3c0.4-0.4,0.4-0.6,0-1c-1.2-1-2.3-2.1-3.5-3.1c-0.6-0.5-1.2-1-2.1-1.3
				c0.1,0.2,0.2,0.3,0.2,0.4c0.4,1.5,0.9,3,1.3,4.5C171.8,92.7,172.2,93.6,172.3,94.7z M149.4,65.2c1.1-0.1,2.1,0,3.1,0.3
				c0.4,0.1,0.7,0.3,0.5,0.7c-0.1,0.5-0.5,0.4-0.9,0.3c-0.7-0.2-1.5-0.3-2.3-0.3c-1.5,0.1-2.8,0.6-3.7,1.9c-1.6,2.2-2.2,4.5-2,7.2
				c0.4,4.6,2.8,7.9,7.2,9.4c2.1,0.7,4.4,1.1,6.6,1.2c3.9,0.2,7.9,0.2,11.7-0.7c5.3-1.2,8-4.2,8.8-9.2c0.5-3.4-0.3-6.3-2.7-8.8
				c-0.2-0.3-0.5-0.4-0.8-0.6c-1.5-0.6-3-0.6-4.5-0.2c-0.4,0.1-0.7,0.1-0.8-0.3c-0.1-0.4,0.1-0.6,0.5-0.7c0.8-0.2,1.7-0.4,2.5-0.4
				c0.1,0,0.3,0.1,0.4-0.1C166.2,60.1,155.7,60.5,149.4,65.2z M161.4,97.7c2.2,0.2,4.3-0.1,6.5-0.5c1.1-0.2,2.1-0.5,3.1-0.9
				c0.3-0.2,0.4-0.3,0.3-0.6c-0.3-1.2-0.7-2.4-1.1-3.6c-0.4-1.6-1-3.1-1.4-4.6c-0.1-0.4-0.3-0.6-0.7-0.5c-0.7,0.2-1.5,0.2-2.2,0.3
				c-3.8,0.4-7.5,0.3-11.3-0.3c-0.3,0-0.4-0.1-0.6,0.3c-0.3,0.8-0.5,1.7-0.8,2.6c-0.5,1.9-1.1,3.8-1.7,5.6c-0.2,0.5,0,0.8,0.5,1
				c1.4,0.5,2.9,0.8,4.4,1C158.1,97.7,159.8,97.8,161.4,97.7z M152.7,86.8c-1.9,1.1-3.4,2.4-4.9,3.7c-1.2,1.1-1.2,1.1,0,2.3
				c0.8,0.8,1.5,1.6,2.4,2.5C151.1,92.4,151.9,89.7,152.7,86.8z M144.3,63.7c-2.3,0.7-4,4.7-2.9,7.1
				C141.8,68.1,142.8,65.9,144.3,63.7z M181.5,70.5c1-2.7-1.1-6.5-3-6.9C180,65.7,180.9,68,181.5,70.5z M174,95.9
				c0.8,0.4,1.7,0.2,2.3-0.4c0.6-0.6,0.7-1.5,0.3-2.2C175.8,94.1,174.9,95,174,95.9z M148.7,96c-0.9-0.9-1.8-1.8-2.6-2.6
				c-0.3,0.8-0.2,1.6,0.4,2.2C147.2,96.2,148,96.3,148.7,96z M173.4,65.2L173.4,65.2L173.4,65.2L173.4,65.2z"/>
			<path class="st10" d="M149.4,65.2c6.3-4.6,16.8-5.1,23.8-0.1c-0.1,0.2-0.3,0.1-0.4,0.1c-0.9,0-1.7,0.1-2.5,0.4
				c-0.4,0.1-0.6,0.3-0.5,0.7c0.1,0.4,0.4,0.4,0.8,0.3c1.5-0.5,3-0.4,4.5,0.2c0.3,0.1,0.6,0.3,0.8,0.6c2.3,2.5,3.2,5.4,2.7,8.8
				c-0.8,5-3.6,8-8.8,9.2c-3.9,0.9-7.8,0.9-11.7,0.7c-2.2-0.1-4.5-0.4-6.6-1.2c-4.4-1.5-6.8-4.8-7.2-9.4c-0.2-2.7,0.4-5,2-7.2
				c1-1.3,2.2-1.9,3.7-1.9c0.8,0,1.6,0.1,2.3,0.3c0.4,0.1,0.7,0.1,0.9-0.3c0.1-0.5-0.2-0.6-0.5-0.7C151.5,65.2,150.5,65,149.4,65.2z
				 M167.8,77.4c0.1,0,0.1,0,0.2,0c2.8-0.8,5.6-1.6,8.4-2.4c0.3-0.1,0.5-0.3,0.4-0.7c-0.1-0.4-0.4-0.5-0.7-0.4c-0.1,0-0.1,0-0.2,0
				c-1.8,0.5-3.7,1-5.5,1.6c-0.9,0.2-1.8,0.5-2.7,0.7c-0.3,0.1-0.5,0.3-0.5,0.6C167.3,77.3,167.5,77.4,167.8,77.4z M154.9,77.4
				c0.4,0,0.6-0.1,0.7-0.4c0.1-0.4-0.2-0.6-0.5-0.7c-2.7-0.8-5.4-1.5-8.2-2.3c-0.4-0.1-0.7-0.1-0.9,0.4c-0.1,0.5,0.3,0.6,0.7,0.7
				c1.9,0.5,3.7,1,5.6,1.6C153.1,76.9,154,77.2,154.9,77.4z M173.6,81.3c0-1.1-0.8-1.9-1.9-1.9c-1.1,0-1.8,0.8-1.8,1.9
				c0,1,0.8,1.9,1.8,1.9C172.8,83.2,173.6,82.4,173.6,81.3z M151.1,83.1c1.2,0,1.9-0.7,1.8-1.9c0-1-0.8-1.8-1.8-1.8
				c-1.1,0-1.9,0.8-1.9,1.8C149.2,82.4,149.9,83.1,151.1,83.1z M161.4,83.1c1.2,0,2.2-0.9,2.3-2.1c0-0.4-0.1-0.7-0.5-0.8
				c-0.4-0.1-0.6,0.2-0.7,0.6c-0.1,0.7-0.5,1.1-1.2,1.1c-0.6,0-1.1-0.4-1.2-1.1c-0.1-0.4-0.3-0.6-0.6-0.6c-0.4,0.1-0.5,0.4-0.5,0.8
				C159.2,82.2,160.2,83.1,161.4,83.1z"/>
			<path class="st11" d="M161.4,97.7c-1.6,0.1-3.3,0-4.9-0.3c-1.5-0.2-2.9-0.5-4.4-1c-0.5-0.2-0.7-0.5-0.5-1
				c0.6-1.9,1.2-3.8,1.7-5.6c0.2-0.9,0.5-1.7,0.8-2.6c0.1-0.3,0.3-0.3,0.6-0.3c3.7,0.6,7.5,0.6,11.3,0.3c0.7-0.1,1.5,0,2.2-0.3
				c0.4-0.1,0.6,0,0.7,0.5c0.4,1.6,1,3.1,1.4,4.6c0.3,1.2,0.7,2.4,1.1,3.6c0.1,0.3,0,0.5-0.3,0.6c-1,0.4-2,0.7-3.1,0.9
				C165.7,97.6,163.6,97.9,161.4,97.7z"/>
			<path class="st12" d="M172.3,94.7c-0.1-1-0.5-2-0.8-2.9c-0.4-1.5-0.9-3-1.3-4.5c0-0.1-0.1-0.2-0.2-0.4c0.9,0.3,1.5,0.8,2.1,1.3
				c1.3,0.9,2.4,2,3.5,3.1c0.4,0.4,0.4,0.6,0,1c-1.1,1-2,2.1-3.1,3C172.5,95,172.5,94.8,172.3,94.7z"/>
			<path class="st13" d="M152.7,86.8c-0.8,2.9-1.6,5.6-2.5,8.5c-0.9-0.9-1.6-1.7-2.4-2.5c-1.1-1.2-1.2-1.2,0-2.3
				C149.3,89.2,150.8,87.9,152.7,86.8z"/>
			<path class="st14" d="M144.3,63.7c-1.5,2.2-2.5,4.5-2.9,7.1C140.3,68.4,142,64.3,144.3,63.7z"/>
			<path class="st15" d="M181.5,70.5c-0.6-2.6-1.5-4.8-3-6.9C180.4,64,182.5,67.8,181.5,70.5z"/>
			<path class="st16" d="M174,95.9c0.9-0.9,1.8-1.8,2.7-2.6c0.4,0.8,0.3,1.6-0.3,2.2C175.7,96.2,174.8,96.3,174,95.9z"/>
			<path class="st16" d="M148.7,96c-0.7,0.3-1.6,0.2-2.2-0.4c-0.6-0.6-0.8-1.4-0.4-2.2C147,94.2,147.9,95.1,148.7,96z"/>
			<path class="st17" d="M172.3,94.7c0.1,0.1,0.2,0.3,0.2,0.5c0,0.2-0.2,0.3-0.4,0.2c-0.2-0.1-0.1-0.3,0-0.4
				C172.2,94.9,172.3,94.8,172.3,94.7z"/>
			<polygon class="st18" points="173.4,65.2 173.3,65.1 173.4,65.1 			"/>
			<path class="st19" d="M167.8,77.4c-0.3,0-0.5-0.2-0.6-0.5c0-0.4,0.2-0.5,0.5-0.6c0.9-0.3,1.8-0.5,2.7-0.7c1.8-0.5,3.7-1,5.5-1.6
				c0.1,0,0.1,0,0.2,0c0.4-0.1,0.6,0,0.7,0.4c0.1,0.3-0.1,0.6-0.4,0.7c-2.8,0.8-5.6,1.6-8.4,2.4C168,77.4,167.9,77.4,167.8,77.4z"/>
			<path class="st20" d="M154.9,77.4c-0.9-0.2-1.8-0.5-2.7-0.8c-1.9-0.5-3.7-1-5.6-1.6c-0.4-0.1-0.8-0.2-0.7-0.7
				c0.1-0.4,0.5-0.5,0.9-0.4c2.7,0.8,5.4,1.5,8.2,2.3c0.4,0.1,0.6,0.3,0.5,0.7C155.5,77.3,155.2,77.5,154.9,77.4z"/>
			<path class="st21" d="M173.6,81.3c0,1.1-0.7,1.9-1.9,1.9c-1,0-1.8-0.8-1.8-1.9c0-1.1,0.8-1.9,1.8-1.9
				C172.8,79.4,173.6,80.2,173.6,81.3z"/>
			<path class="st18" d="M151.1,83.1c-1.1,0-1.8-0.7-1.8-1.8c0-1.1,0.8-1.8,1.9-1.8c1,0,1.8,0.8,1.8,1.8
				C152.9,82.4,152.2,83.1,151.1,83.1z"/>
			<path class="st17" d="M161.4,83.1c-1.2,0-2.2-0.9-2.3-2.1c0-0.4,0.1-0.7,0.5-0.8c0.4-0.1,0.6,0.2,0.6,0.6
				c0.1,0.7,0.6,1.1,1.2,1.1c0.6,0,1.1-0.4,1.2-1.1c0.1-0.4,0.3-0.6,0.7-0.6c0.4,0.1,0.5,0.4,0.5,0.8
				C163.6,82.1,162.6,83.1,161.4,83.1z"/>
		</g>
	</g>
</g>
<path class="st22" d="M185.6,93.1c0-9-9.8-15.6-18.5-15.6c-8.7,0-18.5,6.7-18.5,15.6"/>
<g>
	<path class="st1" d="M28.2,86.6c0,0.7-0.5,1.2-1.2,1.2H10.2c-0.7,0-1.2-0.6-1.2-1.2v-24c0-0.7,0.6-1.2,1.2-1.2H27
		c0.7,0,1.2,0.6,1.2,1.2L28.2,86.6L28.2,86.6z"/>
	<path class="st22" d="M18.6,87.8c0,5.8,8,10.4,17.9,10.4"/>
</g>
<g>
	<path class="st1" d="M212.1,86.6c0,0.7,0.6,1.2,1.2,1.2h16.8c0.7,0,1.2-0.6,1.2-1.2v-24c0-0.7-0.6-1.2-1.2-1.2h-16.8
		c-0.7,0-1.2,0.6-1.2,1.2V86.6z"/>
	<path class="st22" d="M221.8,87.8c0,5.8-8,10.4-17.9,10.4"/>
</g>
<path class="st23" d="M173.4,34.7c0,5.9,4.7,10.6,10.6,10.6c5.9,0,10.6-4.7,10.6-10.6c0-5.8-4.7-10.6-10.6-10.6
	C178.2,24.1,173.4,28.8,173.4,34.7z"/>
<path class="st23" d="M44.6,34.7c0,5.9,4.7,10.6,10.6,10.6c5.9,0,10.6-4.7,10.6-10.6c0-5.8-4.8-10.6-10.6-10.6
	C49.3,24.1,44.6,28.8,44.6,34.7z"/>
<text transform="matrix(1 0 0 1 91.4631 37.1584)" class="st24 st25">AGM2</text>
</svg>
