<?xml version="1.0" encoding="utf-8"?>
<!-- Generator: Adobe Illustrator 21.0.2, SVG Export Plug-In . SVG Version: 6.00 Build 0)  -->
<svg version="1.1" id="Capa_1" xmlns="http://www.w3.org/2000/svg" xmlns:xlink="http://www.w3.org/1999/xlink" x="0px" y="0px"
	 viewBox="0 0 595.28 841.89" enable-background="new 0 0 595.28 841.89" xml:space="preserve">
<path fill="#C70203" d="M276.348,425.359c-1.06,0.528-2.121,1.056-3.181,1.584c-0.143-0.041-0.37-0.162-0.417-0.113
	c-0.785,0.825-2.154,0.528-2.854,1.498c-0.865-0.571-2.312,0.661-2.869-0.925c-0.036-0.102-0.352-0.105-0.538-0.154
	c-0.781-0.629-1.692-0.906-2.675-0.985c-0.139-0.013-0.278-0.027-0.417-0.04c-0.2-0.5-0.624-0.403-1.019-0.384
	c-0.585-0.579-1.289-0.182-1.938-0.234c-2.21-0.478-4.425-0.917-6.706-0.778c-0.621-0.012-1.242-0.024-1.863-0.036
	c-1.217-0.189-2.434-0.377-3.651-0.566c-0.709-0.528-0.749-0.952,0.13-1.37c0.871-0.413,1.776-0.691,2.703-0.927
	c2.46-0.625,5.005-0.913,7.378-1.878l0.074,0.01c0,0,0.045-0.06,0.045-0.06c0.525-0.008,0.984-0.211,1.42-0.484
	c0,0,0.014-0.004,0.014-0.004c1.352-0.291,2.521-0.965,3.625-1.761c0.482-0.347,0.721-0.742,0.444-1.412
	c-0.559-1.355-0.252-1.847,1.163-1.968c0.55-0.047,1.112,0.048,1.669,0.079c0.715,0.04,1.41,0.294,2.141,0.166
	c1.462-0.257,1.687-0.777,0.915-2.069c-0.217-0.363-0.472-0.707-0.496-1.182c-0.067-1.322,0.671-2.043,2.429-2.153
	c2.208-0.138,4.394,0.169,6.553,0.583c2.347,0.45,4.672,1.014,7.007,1.528c1.283,0.209,2.572,0.033,3.858,0.052
	c1.863,0.073,3.704-0.445,5.601-0.118c-0.555-0.558-1.327-0.64-1.78-1.219c0.132-0.05,0.264-0.101,0.396-0.151
	c0.633,0.051,1.237,0.086,1.834-0.292c0.397-0.252,1.016-0.283,1.38-0.03c0.916,0.637,2.37-0.021,2.972,1.28
	c1.757,0.118,3.276,1.444,5.141,1.017c0.643-0.008,1.287-0.016,1.93-0.024c1.689-0.321,3.583,0.103,4.96-1.377
	c0.098-0.105,0.381-0.039,0.577-0.052c3.193,0.004,6.386,0.007,9.579,0.011c2.076,0.131,4.055,0.662,5.971,1.452
	c0.5,0.562,1.419,1.046,0.353,1.898c-1.234,0.036-2.104,0.774-2.913,1.577c-0.127,0.126-0.8,0.659,0.123,0.758
	c0.576,0.149,1.146,0.394,1.73,0.431c3.374,0.215,6.751,0.381,10.127,0.564c0.159,0.005,0.318,0.01,0.477,0.014
	c1.767,0.175,3.533,0.35,5.3,0.525c1.133,0.614,2.267,1.227,3.401,1.841l-0.008,0.003c-0.066,0.858-1.002,1.621-0.284,2.566
	c-0.031,0.065-0.082,0.094-0.154,0.089c-1.038-0.37-1.475,0.039-1.549,1.448c-0.775,0.221-1.302,0.952-2.141,1.04
	c-0.417-0.224-0.63,0.279-1.039,0.27c-1.005-0.023-1.918,0.31-2.604,1.105c-0.693,0.006-1.39-0.022-2.049,0.255
	c-0.104-0.981-0.872-0.269-1.27-0.499c-0.051-0.361,0.142-0.859-0.455-0.928c-0.297-0.034-0.669-0.149-0.877,0.166
	c-0.265,0.4,0.236,0.505,0.36,0.76c-0.79,0.114-1.62-0.217-2.38,0.217c-1.852-0.075-3.703-0.166-5.555-0.22
	c-1.19-0.035-2.401,0.111-3.563-0.07c-0.664-0.104-0.939,0.093-1.241,0.532c-0.758,0.271-1.314,0.832-1.91,1.334
	c-0.953,0.162-1.23,0.899-1.438,1.694c-0.022,0.046-0.058,0.076-0.108,0.089c-0.383-0.258-0.607-0.017-0.819,0.261
	c-1.363-0.033-2.693,0.077-4.081-0.342c-1.104-0.333-2.509-0.623-3.59,0.428c-0.174,0.156-0.437,0.279-0.507,0.472
	c-0.618,1.707-2.014,1.883-3.54,1.888c-1.346,0.004-2.7-0.159-4.034,0.159c0.11-0.319-0.122-0.473-0.341-0.482
	c-1.161-0.046-2.189-0.768-3.378-0.643c-0.651,0.105-1.252-0.37-1.912-0.168c-2.215-0.583-4.472-0.255-6.711-0.309
	c-0.979-1.273-1.502-0.065-2.161,0.397c-0.508,0.028-1.02,0.024-1.523,0.092c-0.504,0.069-1.165-0.119-1.32,0.664
	c-0.927-0.054-1.784,0.25-2.65,0.512c-1.07-0.178-2.021,0.145-2.919,0.69c-0.956-0.006-1.912-0.011-2.868-0.017
	c-0.331-1.265,0.613-1.909,1.343-2.593c1.313-1.231,2.591-2.483,3.566-4.007c0.296-0.462,0.661-0.918,0.485-1.535
	c0.109-0.298-0.047-0.39-0.31-0.489c-0.749-0.283-1.472-0.001-2.205,0.048C277.821,424.45,277.014,424.738,276.348,425.359z
	 M304.63,423.85c0.378-0.044,0.88,0.162,0.961-0.478c0.916-1.179,2.216-0.969,3.462-0.963c1.158,0.005,2.319,0.05,3.473-0.012
	c1.182-0.064,2.307-0.484,3.312-1.054c0.401-0.227,0.872-0.882,0.708-1.494c-0.153-0.572-0.66-0.89-1.302-0.795
	c-2.052,0.303-3.996-0.687-6.04-0.489c-0.272,0.026-0.593,0.031-0.682-0.328c-0.099-0.401,0.119-0.583,0.497-0.645
	c0.281-0.046,0.4-0.241,0.373-0.517c-0.036-0.375-0.317-0.413-0.608-0.42c-0.512-0.013-0.991-0.231-1.458-0.32
	c-1.636-0.31-3.355-0.412-4.962,0.023c-1.241,0.335-2.396,0.526-3.527-0.074c-1.341-0.711-2.521-0.708-3.86,0.109
	c-1.001,0.611-2.269,0.393-3.366,0.117c-1.391-0.35-2.727-0.862-4.203-0.839c-0.774,0.012-1.115,0.236-1.023,1.029
	c0.092,0.789-0.217,1.246-1.076,1.148c-0.771-0.088-1.034,0.458-1.284,1.009c-0.094,0.208-0.028,0.561-0.3,0.601
	c-1.54,0.225-2.857,1.43-4.535,1.036c-0.117-0.001-0.236-0.017-0.35,0.001c-0.411,0.066-1.023-0.23-1.075,0.525
	c-0.053,0.766,0.512,0.857,1.08,0.907c0.193,0.017,0.389,0.003,0.583,0.003c0.279,0.001,0.566-0.04,0.837,0.009
	c1.789,0.321,3.717,0.041,5.296,1.289c0.388,0.307,1.022,0.295,1.347-0.043c0.64-0.664,1.589-0.668,2.26-1.239
	c0.476-0.406,1.062-0.11,1.397,0.188c0.382,0.341-0.06,0.703-0.33,0.989c-0.164,0.173-0.339,0.336-0.503,0.511
	c-0.24,0.256-0.582,0.483-0.383,0.911c0.177,0.379,0.55,0.216,0.847,0.27c1.462,0.266,2.816-0.382,4.234-0.517
	c2.325-0.221,4.533,0.721,6.836,0.514c0.312-0.006,0.472-0.166,0.482-0.478c0.309-0.011,0.469-0.172,0.48-0.481
	c0.57,0.021,1.135-0.082,1.649,0.373C304.16,424.47,304.564,424.351,304.63,423.85L304.63,423.85z M312.177,416.65
	c1.054,0.008,1.401-0.428,0.97-1.321c-0.236-0.489-0.376-0.943-0.365-1.474c0.007-0.296,0.1-0.724-0.371-0.74
	c-0.463-0.016-0.586,0.361-0.572,0.751c0.017,0.501-0.124,0.939-0.399,1.352c-0.2,0.3-0.724,0.494-0.379,0.995
	C311.345,416.625,311.774,416.687,312.177,416.65z M316.098,425.078c0.697-0.072,1.346,0.135,1.442-0.603
	c0.084-0.646-0.733-0.863-0.948-0.836c-0.684,0.087-1.451,0.069-2.041,0.523c-0.299,0.23-0.386,0.536,0.139,0.644
	C315.227,424.917,315.746,425.148,316.098,425.078z M322.284,422.41c0.267,0,0.465,0.011,0.661-0.002
	c0.372-0.025,0.878,0.105,0.843-0.521c-0.029-0.527-0.48-0.411-0.815-0.434c-0.196-0.014-0.394-0.001-0.592-0.003
	c-0.564-0.007-1.313,0.004-1.258,0.687C321.166,422.664,321.929,422.296,322.284,422.41z M325.642,419.056
	c-0.235,0.081-0.823-0.162-0.791,0.45c0.031,0.604,0.457,0.95,1.103,0.983c0.557,0.028,0.765-0.209,0.762-0.763
	C326.711,418.994,326.227,419.048,325.642,419.056z M319.646,421.949c0.361-0.136,1.065,0.242,0.974-0.488
	c-0.06-0.481-0.576-0.897-1.108-0.921c-0.56-0.025-0.869,0.529-0.875,0.956C318.625,422.193,319.29,421.811,319.646,421.949z
	 M267.103,420.525c0.316-0.174,0.953,0.22,0.998-0.492c0.04-0.627-0.504-0.476-0.873-0.499c-0.488-0.03-1.091-0.05-1.101,0.591
	C266.117,420.758,266.739,420.37,267.103,420.525z M271.474,416.658c0.367-0.079,0.977,0.182,0.946-0.527
	c-0.026-0.596-0.565-0.427-0.922-0.43c-0.358-0.002-0.882-0.157-0.902,0.452C270.575,416.774,271.101,416.605,271.474,416.658z
	 M283.513,412.263c0.016-0.187-0.154-0.463-0.547-0.379c-0.43,0.092-0.812,0.392-0.822,0.856c-0.007,0.361,0.397,0.479,0.703,0.5
	C283.369,413.274,283.496,412.9,283.513,412.263z M290.203,426.737c0.292-0.096,0.852,0.189,0.846-0.319
	c-0.005-0.467-0.494-0.663-0.976-0.644c-0.343,0.013-0.781-0.066-0.767,0.474C289.324,426.867,289.834,426.68,290.203,426.737z
	 M284.706,424.33c-0.354,0.018-0.806-0.023-0.841,0.447c-0.036,0.492,0.411,0.505,0.772,0.507c0.353,0.002,0.771,0.047,0.758-0.498
	C285.385,424.33,285.029,424.346,284.706,424.33z M294.916,428.332c-0.562-0.11-0.888-0.872-1.61-0.539
	c-0.23,0.106-0.269,0.466-0.098,0.616c0.493,0.429,1.08,0.258,1.643,0.127C294.87,428.531,294.875,428.465,294.916,428.332z"/>
<path fill="#C41C1F" d="M304.836,411.865c-1.865,0.428-3.384-0.898-5.141-1.017c-0.602-1.301-2.057-0.644-2.972-1.28
	c-0.364-0.253-0.983-0.222-1.38,0.03c-0.597,0.378-1.2,0.343-1.834,0.292c2.345-1.033,4.689-0.832,6.888,0.303
	C301.828,410.932,303.263,411.553,304.836,411.865z"/>
<path fill="#4E2724" d="M301.615,432.2c1.334-0.318,2.689-0.155,4.034-0.159c1.525-0.004,2.922-0.181,3.54-1.888
	c0.07-0.193,0.334-0.316,0.507-0.472c0.089,0.066,0.178,0.133,0.267,0.199c-0.898,0.719-0.958,2.166-2.227,2.563
	c-2.073,0.346-4.136,0.395-6.177-0.203C301.558,432.24,301.615,432.2,301.615,432.2z"/>
<path fill="#4E2724" d="M266.49,427.249c0.186,0.049,0.502,0.052,0.538,0.154c0.557,1.586,2.004,0.354,2.869,0.925
	c0.699-0.97,2.069-0.673,2.854-1.498c0.047-0.05,0.274,0.071,0.417,0.113c-1.511,1.424-3.358,1.949-5.373,1.891
	c-0.537-0.015-1.023-0.396-1.112-1.046C266.619,427.609,266.554,427.429,266.49,427.249z"/>
<path fill="#3E1510" d="M310.872,429.659c-0.34-0.078-0.651-0.037-0.909,0.221c-0.089-0.067-0.178-0.133-0.267-0.199
	c1.081-1.05,2.486-0.76,3.59-0.427c1.388,0.419,2.717,0.309,4.08,0.342c0.198,0.015,0.397,0.03,0.596,0.045
	c-1.241,0.825-2.593,0.735-3.906,0.329C312.997,429.642,311.951,429.576,310.872,429.659z"/>
<path fill="#1C0401" d="M321.642,426.217c0.302-0.439,0.577-0.636,1.241-0.532c1.163,0.182,2.374,0.035,3.563,0.07
	c1.852,0.054,3.703,0.145,5.555,0.22c0.155,0.014,0.31,0.028,0.465,0.042c-0.003,0.145-0.006,0.29-0.008,0.435
	c-1.516-0.087-3.032-0.173-4.547-0.26c-0.071-0.12-0.15-0.147-0.241-0.02c-0.649-0.022-1.305,0.084-1.945-0.107
	c-0.092-0.005-0.184-0.009-0.276-0.014c-0.439,0-0.877,0-1.316,0c-0.118-0.002-0.236-0.004-0.354-0.005
	C323.075,426.2,322.371,426.363,321.642,426.217z"/>
<path fill="#C41C1F" d="M321.883,410.422c-3.193-0.004-6.386-0.007-9.579-0.011c0-0.067,0.002-0.134,0.005-0.201
	C315.513,409.739,318.702,409.889,321.883,410.422z"/>
<path fill="#3E1510" d="M253.734,424.828c2.282-0.139,4.496,0.3,6.707,0.778c-0.209,0.228-0.498,0.139-0.753,0.188
	c-1.979-0.187-3.957-0.374-5.936-0.561C253.746,425.098,253.74,424.963,253.734,424.828z"/>
<path fill="#480805" d="M289.274,430.598c2.239,0.054,4.496-0.274,6.711,0.308c-0.787,0.316-1.613,0.015-2.411,0.151
	c-0.936,0.003-1.872,0.007-2.808,0.01c-0.344-0.019-0.702-0.137-1.008,0.133c-0.478,0.18-0.966,0.082-1.452,0.053
	c-0.002-0.073-0.001-0.146,0.005-0.22C288.529,430.661,289.05,430.957,289.274,430.598z"/>
<path fill="#BE0D11" d="M293.112,410.041c0.453,0.58,1.225,0.661,1.78,1.219c-1.897-0.327-3.738,0.19-5.601,0.118
	C290.587,410.995,291.93,410.748,293.112,410.041z"/>
<path fill="#BE0D11" d="M312.309,410.211c-0.003,0.067-0.005,0.134-0.005,0.201c-0.197,0.013-0.479-0.053-0.577,0.052
	c-1.378,1.481-3.271,1.056-4.96,1.377C308.6,411.251,310.29,410.172,312.309,410.211z"/>
<path fill="#3E1510" d="M301.615,432.2c0,0-0.057,0.041-0.057,0.041c-1.251-0.06-2.438-0.438-3.641-0.733
	c-0.007-0.144-0.014-0.289-0.021-0.433c1.189-0.124,2.217,0.597,3.378,0.643C301.493,431.726,301.726,431.881,301.615,432.2z"/>
<path fill="#3E1510" d="M338.673,426.004c0.687-0.795,1.599-1.128,2.604-1.105c0.409,0.009,0.621-0.494,1.039-0.27
	C341.236,425.443,340.002,425.85,338.673,426.004z"/>
<path fill="#1C0401" d="M288.311,431.033c-0.006,0.073-0.007,0.146-0.005,0.22c-1.346,0.166-2.692,0.332-4.037,0.499
	c0.155-0.783,0.817-0.595,1.321-0.664c0.503-0.068,1.015-0.065,1.523-0.092C287.512,431.008,287.911,431.02,288.311,431.033z"/>
<path fill="#6E0000" d="M332.458,426.452c0.003-0.145,0.006-0.29,0.008-0.435c1.288,0.074,2.594-0.227,3.864,0.196
	C335.072,426.812,333.751,426.41,332.458,426.452z"/>
<path fill="#3E1510" d="M278.7,432.954c0.899-0.545,1.85-0.869,2.919-0.69c-0.676,0.672-1.585,0.71-2.44,0.895
	C279.019,433.09,278.86,433.022,278.7,432.954z"/>
<path fill="#3E1510" d="M266.49,427.249c0.064,0.18,0.129,0.359,0.193,0.539c-0.895-0.521-1.873-0.835-2.855-1.136
	c-0.004-0.129-0.009-0.259-0.013-0.388C264.798,426.343,265.709,426.62,266.49,427.249z"/>
<path fill="#2B2620" d="M297.896,431.074c0.007,0.144,0.014,0.289,0.021,0.433c-1.448-0.15-2.896-0.301-4.344-0.451
	c0.798-0.136,1.624,0.166,2.411-0.151C296.644,430.705,297.245,431.18,297.896,431.074z"/>
<path fill="#1C0401" d="M278.7,432.954c0.16,0.068,0.319,0.136,0.479,0.204c-0.795,0.272-1.615,0.365-2.45,0.32
	c-0.388-0.021-0.818,0.002-0.897-0.542C276.788,432.943,277.744,432.948,278.7,432.954z"/>
<path fill="#2B2620" d="M259.688,425.794c0.254-0.05,0.543,0.04,0.753-0.188c0.649,0.052,1.352-0.345,1.938,0.234
	c0.003,0.141,0.006,0.281,0.01,0.422C261.469,426.217,260.565,426.081,259.688,425.794z"/>
<path fill="#2B2620" d="M253.734,424.828c0.006,0.135,0.012,0.27,0.018,0.405c-1.119-0.073-2.238-0.146-3.357-0.219
	c0.446-0.378,0.992-0.095,1.477-0.222C252.492,424.804,253.113,424.816,253.734,424.828z"/>
<path fill="#4E2724" d="M276.348,425.359c0.666-0.621,1.473-0.909,2.363-0.999c-0.001,0.144-0.001,0.289-0.002,0.434
	C277.966,425.164,277.177,425.343,276.348,425.359z"/>
<path fill="#AB1921" d="M346.005,422.14c-0.273,0.324-0.547,0.647-0.82,0.971c-0.307,0.061-0.278,0.634-0.728,0.478
	C344.531,422.179,344.968,421.77,346.005,422.14z"/>
<path fill="#3E1510" d="M251.871,424.792c-0.484,0.127-1.03-0.156-1.477,0.222c-0.721-0.148-1.443-0.296-2.164-0.444
	c-0.003-0.114-0.007-0.228-0.01-0.343C249.437,424.415,250.654,424.604,251.871,424.792z"/>
<path fill="#1C0401" d="M278.71,424.794c0.001-0.145,0.001-0.289,0.002-0.434c0.733-0.048,1.456-0.331,2.205-0.048
	c0.263,0.099,0.418,0.191,0.31,0.489C280.387,424.317,279.548,424.755,278.71,424.794z"/>
<path fill="#AB1921" d="M336.331,426.214c-1.27-0.423-2.577-0.122-3.864-0.196c-0.155-0.014-0.31-0.028-0.465-0.042
	c0.761-0.434,1.591-0.103,2.381-0.217c0.324,0.001,0.648,0.001,0.972,0.002c0.399,0.229,1.167-0.482,1.27,0.499
	C336.526,426.244,336.429,426.229,336.331,426.214z"/>
<path fill="#4E2724" d="M318.294,429.245c0.208-0.795,0.485-1.532,1.438-1.694C319.266,428.128,319.131,428.984,318.294,429.245z"/>
<path fill="#F6F1EC" d="M259.97,419.52c-0.435,0.273-0.894,0.476-1.42,0.484C258.789,419.153,259.494,419.674,259.97,419.52z"/>
<path fill="#3E1510" d="M262.388,426.262c-0.003-0.141-0.006-0.281-0.01-0.422c0.395-0.019,0.82-0.115,1.019,0.384
	c-0.289,0.022-0.577,0.044-0.865,0.066l-0.08,0.025L262.388,426.262z"/>
<path fill="#2B2620" d="M262.532,426.29c0.288-0.022,0.577-0.044,0.865-0.066c0.139,0.013,0.278,0.027,0.417,0.04
	c0.004,0.129,0.009,0.259,0.013,0.388C263.403,426.505,262.915,426.584,262.532,426.29z"/>
<path fill="#4E2724" d="M317.963,429.64c-0.199-0.015-0.397-0.03-0.596-0.045c0.212-0.278,0.436-0.519,0.819-0.261
	C318.112,429.436,318.037,429.538,317.963,429.64z"/>
<path fill="#F6F1EC" d="M259.604,417.914c0.029-0.066,0.044-0.167,0.091-0.187c0.047-0.019,0.127,0.047,0.192,0.076
	c-0.029,0.066-0.043,0.168-0.091,0.187C259.75,418.009,259.67,417.943,259.604,417.914z"/>
<path fill="#2B2620" d="M289.757,431.2c0.306-0.27,0.663-0.152,1.008-0.133C290.429,431.111,290.093,431.155,289.757,431.2z"/>
<path fill="#F6F1EC" d="M258.941,417.31c-0.029,0.066-0.043,0.168-0.09,0.187c-0.047,0.019-0.127-0.046-0.193-0.074
	c0.028-0.066,0.042-0.168,0.089-0.187C258.795,417.218,258.875,417.282,258.941,417.31z"/>
<path fill="#4E2724" d="M327.67,426.173c0.091-0.128,0.17-0.1,0.241,0.02C327.83,426.186,327.75,426.18,327.67,426.173z"/>
<path fill="#4E2724" d="M325.449,426.052c0.092,0.005,0.184,0.009,0.276,0.014C325.633,426.062,325.541,426.057,325.449,426.052z"/>
<path fill="#4E2724" d="M323.78,426.047c0.118,0.002,0.236,0.004,0.354,0.005C324.014,426.161,323.896,426.159,323.78,426.047z"/>
<path fill="#AC0000" d="M301.269,424.809c-2.303,0.207-4.511-0.735-6.836-0.514c-1.419,0.135-2.772,0.783-4.234,0.517
	c-0.296-0.054-0.67,0.109-0.847-0.27c-0.199-0.428,0.143-0.655,0.383-0.911c0.163-0.174,0.338-0.337,0.503-0.511
	c0.27-0.285,0.713-0.648,0.33-0.989c-0.335-0.299-0.92-0.594-1.397-0.188c-0.671,0.571-1.62,0.575-2.26,1.239
	c-0.325,0.337-0.96,0.349-1.347,0.043c-1.579-1.248-3.507-0.968-5.296-1.289c-0.271-0.049-0.557-0.008-0.837-0.008
	c-0.081-0.479-0.327-0.93-0.239-1.436c1.678,0.394,2.994-0.811,4.535-1.036c0.272-0.04,0.206-0.393,0.3-0.601
	c0.25-0.551,0.514-1.097,1.284-1.009c0.859,0.098,1.167-0.359,1.076-1.148c-0.092-0.793,0.249-1.016,1.023-1.029
	c1.476-0.023,2.812,0.489,4.203,0.839c1.097,0.276,2.364,0.494,3.366-0.117c1.339-0.817,2.519-0.82,3.86-0.109
	c1.131,0.599,2.286,0.409,3.527,0.074c1.608-0.435,3.326-0.332,4.962-0.023c0.467,0.088,0.946,0.307,1.458,0.32
	c0.291,0.007,0.573,0.045,0.608,0.42c0.026,0.276-0.093,0.471-0.373,0.517c-0.378,0.062-0.596,0.243-0.497,0.645
	c0.089,0.359,0.41,0.355,0.682,0.328c2.043-0.198,3.988,0.792,6.04,0.489c0.642-0.095,1.149,0.223,1.302,0.795
	c0.164,0.612-0.307,1.266-0.708,1.494c-1.005,0.57-2.131,0.99-3.312,1.054c-1.155,0.062-2.315,0.017-3.473,0.012
	c-1.246-0.005-2.547-0.215-3.462,0.963c-0.378,0.043-0.881-0.164-0.961,0.478h0c-0.339,0.006-0.552-0.328-0.828-0.367
	c-0.547-0.076-1.228-0.498-1.57,0.367c-0.011,0.309-0.171,0.47-0.48,0.481C301.439,424.338,301.279,424.498,301.269,424.809z"/>
<path fill="#B90302" d="M312.177,416.65c-0.403,0.038-0.833-0.025-1.117-0.438c-0.344-0.501,0.18-0.695,0.379-0.995
	c0.275-0.413,0.416-0.851,0.399-1.352c-0.013-0.39,0.109-0.767,0.572-0.751c0.471,0.016,0.378,0.444,0.371,0.74
	c-0.012,0.531,0.129,0.985,0.365,1.474C313.578,416.221,313.231,416.658,312.177,416.65z"/>
<path fill="#B90302" d="M316.098,425.078c-0.353,0.07-0.871-0.161-1.407-0.272c-0.526-0.108-0.438-0.414-0.139-0.644
	c0.59-0.454,1.357-0.436,2.041-0.523c0.215-0.027,1.032,0.19,0.948,0.836C317.445,425.213,316.796,425.006,316.098,425.078z"/>
<path fill="#BE0302" d="M322.284,422.41c-0.355-0.114-1.118,0.254-1.161-0.274c-0.055-0.683,0.694-0.693,1.258-0.687
	c0.197,0.002,0.395-0.01,0.592,0.003c0.335,0.023,0.786-0.093,0.815,0.434c0.035,0.627-0.472,0.496-0.843,0.521
	C322.749,422.421,322.551,422.41,322.284,422.41z"/>
<path fill="#AC0000" d="M325.642,419.056c0.585-0.008,1.07-0.062,1.074,0.67c0.003,0.554-0.205,0.792-0.762,0.763
	c-0.645-0.033-1.072-0.379-1.103-0.983C324.819,418.894,325.406,419.137,325.642,419.056z"/>
<path fill="#BE0302" d="M319.646,421.949c-0.355-0.138-1.02,0.244-1.009-0.453c0.007-0.427,0.315-0.981,0.875-0.956
	c0.532,0.024,1.048,0.44,1.108,0.921C320.711,422.191,320.006,421.813,319.646,421.949z"/>
<path fill="#B90302" d="M279.192,420.492c-0.088,0.507,0.158,0.958,0.239,1.436c-0.194,0-0.39,0.014-0.583-0.003
	c-0.568-0.051-1.133-0.141-1.08-0.907c0.052-0.755,0.663-0.46,1.075-0.525C278.956,420.475,279.076,420.492,279.192,420.492z"/>
<path fill="#3E1510" d="M328.206,413.773c-0.281,0.59-0.885,0.718-1.387,1.01c-0.559,0.325-1.238,0.567-1.402,1.325
	c-0.923-0.099-0.25-0.633-0.124-0.759C326.102,414.547,326.972,413.809,328.206,413.773z"/>
<path fill="#B90302" d="M267.103,420.525c-0.363-0.155-0.985,0.232-0.975-0.4c0.01-0.641,0.613-0.621,1.101-0.591
	c0.369,0.023,0.913-0.128,0.873,0.499C268.055,420.745,267.419,420.351,267.103,420.525z"/>
<path fill="#B90302" d="M271.474,416.658c-0.373-0.053-0.899,0.117-0.878-0.504c0.02-0.609,0.544-0.455,0.902-0.452
	c0.357,0.002,0.896-0.166,0.922,0.43C272.451,416.84,271.841,416.579,271.474,416.658z"/>
<path fill="#B90302" d="M283.513,412.263c-0.017,0.637-0.143,1.011-0.666,0.976c-0.306-0.02-0.711-0.139-0.703-0.5
	c0.01-0.464,0.392-0.764,0.822-0.856C283.359,411.8,283.529,412.076,283.513,412.263z"/>
<path fill="#AC0000" d="M290.203,426.737c-0.369-0.056-0.879,0.131-0.896-0.489c-0.015-0.541,0.424-0.461,0.767-0.474
	c0.482-0.019,0.97,0.177,0.976,0.644C291.055,426.926,290.495,426.64,290.203,426.737z"/>
<path fill="#AB1921" d="M345.737,418.507c0.256,0.312,0.667,0.51,0.714,0.975c-1.134-0.614-2.267-1.227-3.401-1.841
	C344.039,417.641,344.892,418.062,345.737,418.507z"/>
<path fill="#B90302" d="M284.707,424.331c0.322,0.014,0.678-0.001,0.688,0.455c0.012,0.545-0.405,0.5-0.758,0.498
	c-0.361-0.002-0.808-0.015-0.772-0.507C283.9,424.307,284.352,424.348,284.707,424.331z"/>
<path fill="#AC0000" d="M288.311,431.033c-0.399-0.013-0.799-0.025-1.198-0.038c0.66-0.463,1.182-1.671,2.161-0.397
	C289.05,430.957,288.529,430.661,288.311,431.033z"/>
<path fill="#B90302" d="M294.916,428.332c-0.041,0.133-0.046,0.199-0.065,0.204c-0.562,0.131-1.149,0.303-1.643-0.127
	c-0.172-0.149-0.133-0.51,0.098-0.616C294.028,427.46,294.353,428.221,294.916,428.332z"/>
<path fill="#BE0302" d="M302.231,423.851c0.342-0.866,1.024-0.443,1.57-0.367c0.276,0.038,0.489,0.373,0.828,0.367
	c-0.066,0.501-0.47,0.62-0.749,0.373C303.366,423.769,302.801,423.872,302.231,423.851z"/>
<path fill="#AB1921" d="M346.443,419.485c0.468,0.917,0.403,1.776-0.284,2.566C345.441,421.106,346.377,420.344,346.443,419.485z"/>
<path fill="#B90302" d="M335.354,425.761c-0.324-0.001-0.648-0.001-0.972-0.002c-0.124-0.255-0.625-0.359-0.36-0.76
	c0.208-0.315,0.58-0.2,0.877-0.166C335.496,424.901,335.303,425.4,335.354,425.761z"/>
<path fill="#BE0302" d="M304.63,423.85c0.08-0.642,0.583-0.435,0.961-0.478C305.51,424.012,305.008,423.806,304.63,423.85z"/>
<path fill="#BE0302" d="M301.269,424.809c0.01-0.311,0.169-0.471,0.482-0.478C301.742,424.643,301.582,424.803,301.269,424.809z"/>
</svg>
