<?xml version="1.0" encoding="utf-8"?>
<!-- Generator: Adobe Illustrator 21.0.2, SVG Export Plug-In . SVG Version: 6.00 Build 0)  -->
<svg version="1.1" id="Capa_1" xmlns="http://www.w3.org/2000/svg" xmlns:xlink="http://www.w3.org/1999/xlink" x="0px" y="0px"
	 viewBox="0 0 595.28 841.89" enable-background="new 0 0 595.28 841.89" xml:space="preserve">
<g>
	<path fill="#FEE0C3" d="M387.006,384.874c1.063,17.531-1.033,34.479-9.609,50.138c-5.365,9.797-11.675,18.88-20.671,25.81
		c-1.149,0.885-1.943,2.229-2.902,3.36c-1.689,2.868-4.632,4.253-7.276,5.894c-12.922,8.022-26.821,13.029-42.218,13.201
		c-4.198,0.011-8.394,0.102-12.587,0.002c-17.794-1.338-33.708-7.536-47.761-18.528c0.046-2.174-1.714-3.175-3.022-4.339
		c-16.991-15.117-26.697-34.118-29.649-56.505c-0.821-6.223-0.253-12.629-0.322-18.951c0.69-2.024,2.507-2.557,4.248-3.026
		c19.065-5.137,38.471-8.365,58.109-10.26c0.997-0.096,1.981,0.068,2.908,0.461c0.255,2.329,0.297,2.506-2.257,3.113
		c-6.412,1.525-11.577,5.006-15.815,9.893c-6.007,6.927-9.314,14.954-8.843,24.224c0.41,8.072,3.214,15.075,10.768,19.034
		c7.929,4.156,15.63,2.418,22.621-2.342c6.907-4.704,11.757-11.172,14.52-19.167c0.762-2.205,1.822-5.105,4.404-1.137
		c2.638,10.423,8.053,18.769,17.527,24.357c14.437,8.515,30.841-0.267,31.514-18.399c0.519-13.982-9.174-28.302-22.276-33.008
		c-10.505-3.773-20.625,0.532-25.24,10.708c-0.682,1.503-0.822,3.244-1.997,4.531c-2.595,0.232-2.815-1.94-3.333-3.539
		c-2.394-7.385-6.587-12.942-14.414-15.192c-1.342-0.386-3.739-0.752-1.848-3.253c1.546-1.171,3.359-1.43,5.204-1.488
		c32.318-1.011,64.24,1.46,95.345,10.963C384.071,382.021,386.58,382.042,387.006,384.874z"/>
	<path fill="#7F3300" d="M219.673,517.097c3.385-14.851,7.845-29.341,14.828-42.939c1.803-3.512,3.836-6.967,7.381-9.133
		c1.198,0.69,2.043,1.715,2.602,2.946c5.02,11.063,14.742,15.741,25.61,18.793c6.927,1.945,14.126,2.01,21.22,2.779
		c1.965,0.213,4.016-0.139,5.805,1.06c0.396,0.436,0.644,0.94,0.758,1.515c0.151,17.014,0.289,34.025-0.055,50.948
		c0.463-16.968-0.046-33.855,0.27-50.734c0.061-0.562,0.256-1.078,0.577-1.543c5.351-2.22,11.117-1.402,16.672-2.116
		c8.549-1.098,16.657-3.18,24.132-7.54c4.569-2.665,8.153-6.267,10.804-10.843c0.977-1.687,1.561-3.759,3.761-4.427
		c1.205,0.537,2.392,1.031,3.097,2.31c8.327,15.108,16.719,30.186,19.646,47.525c0.054,0.32-0.015,0.661-0.027,0.993
		c-0.643,0.3-1.331,0.286-1.892-0.071c-5.718-3.64-11.243-2.936-16.66,0.68c-0.489,0.112-0.977,0.106-1.467,0.009
		c-3.271-1.263-1.925-4.683-3.212-6.873c-0.006-0.663-0.095-1.311-0.429-1.902c-0.167-0.295-0.297-0.589-0.375-0.89
		c-0.097,0.438,0.277,0.697,0.408,1.049c0.174,0.465,0.331,0.928,0.353,1.43c0.117,2.298,1.81,4.445,0.666,6.865
		c-0.779,1.732-2.168,2.99-3.393,4.377c-1.189,1.193-1.733,2.542-1.026,4.192c0.549,1.386,1.461,2.466,2.742,3.241
		c0.376,0.226,0.723,0.483,1.063,0.758c0.516,0.436,0.955,0.935,1.342,1.484c1.641,4.557,6.44,5.914,9.331,9.203
		c-1.662,1.174-3.324,2.347-4.985,3.521c-1.492,1.534-3.522,1.772-5.448,2.243c-24.598,6.015-49.474,7.842-74.728,5.614
		c-10.949-0.966-21.845-2.064-32.568-4.46c-3.328-0.744-6.999-1.008-9.408-4.032c-1.42-0.704-2.84-1.408-4.26-2.112
		c-0.352-1.281,0.582-1.827,1.456-2.168c3.769-1.47,5.867-4.562,7.807-7.827c0.334-0.581,0.687-1.15,1.042-1.719
		c0.689-1.145,1.585-2.121,2.512-3.069c1.399-1.422,1.374-2.96,0.364-4.574c-0.883-1.289-1.997-2.342-3.23-3.272
		c-1.008-0.994-2.118-1.261-3.381-0.462c-0.653,0.279-1.295,0.344-1.919-0.071c-3.974-3.678-8.449-3.766-13.205-1.852
		C222.78,516.594,221.459,517.815,219.673,517.097z"/>
	<path fill="#00007F" d="M321.632,305.056c1.904-0.572,3.613,0.208,5.314,0.834c28.193,10.374,46.769,30.648,59.001,57.42
		c0.25,0.547,0.115,1.271,0.159,1.912c-2.581,1.159-4.917-0.184-7.231-0.879c-18.552-5.573-37.509-9.111-56.769-10.798
		c-34.813-3.049-69.032,0.591-102.689,9.881c-2.481,0.685-4.997,2.132-7.663,0.491c10.911-30.44,31.702-50.323,63.012-58.961
		c1.116-0.308,2.254-0.535,3.382-0.8c2.704,2.975,7.434,1.117,10.084,4.224c-0.727,2.577-3.8,2.361-5.291,4.563
		c2.166,0.386,4.121-1.45,6.091-0.32c1.723,3.083-1.785,4.174-2.413,6.57c2.855-0.514,3.955-5.092,7.656-3.378
		c1.469,2.395-0.51,4.609-0.455,7.469c1.572-1.133,1.824-3.003,3.28-3.636c2.149,0.32,1.901,2.32,2.583,3.649
		c0.214,0.348,0.34,1.012,0.863,0.796c0.594-0.245,0.544-1.027,0.741-1.599c0.687-1.645,0.173-3.823,2.178-4.867
		c2.54,0.238,2.662,3.047,4.457,4.291c0.721-1.813-0.985-3.461-0.087-5.125c2.472-1.598,3.704,1.529,5.913,1.56
		c0.228-3.741-5.444-3.814-4.741-7.707c3.302-1.859,6.199,1.755,9.5,0.854c-0.33-1.516-1.885-1.45-2.546-2.384
		C316.385,305.721,319.767,306.448,321.632,305.056z"/>
	<path fill="#FE0000" d="M211.754,363.918c16.482-4.703,33.138-8.585,50.187-10.595c42.245-4.98,83.695-1.647,124.165,11.9
		c4.905,0.396,6.756,2.953,5.961,7.84c-0.45,2.766-0.519,5.642-0.368,8.447c0.207,3.847-1.654,4.305-4.694,3.365
		c-12.559-4.986-25.759-7.499-38.992-9.665c-20.569-3.366-41.322-3.974-62.124-3.066c-1.64,0.072-3.266,0.483-4.899,0.737
		c-1.282,1.125-2.607,1.215-3.979,0.165c-22.449,1.528-44.521,5.144-66.024,11.913c-3.358,1.277-4.148-0.082-3.803-3.323
		c0.423-3.966,0.771-7.995,0.53-11.959C207.514,366.351,209.027,364.867,211.754,363.918z"/>
	<path fill="#3652A2" d="M237.068,543.128c38.801,10.223,77.719,10.7,116.762,1.428c1.76-0.418,3.591-0.534,5.39-0.791
		c0.177,5.978,0.353,11.958,0.529,17.937c-1.118,1.169-2.493,0.791-3.75,0.481c-7.627-1.88-15.405-2.741-23.198-3.456
		c-9.034-0.828-17.972,0.322-26.781,2.082c-6.154,1.229-12.06,1.412-18.27,0.165c-15.293-3.07-30.717-3.716-46.175-0.959
		c-1.586,0.283-3.272,0.94-4.742-0.419C236.91,554.106,236.989,548.617,237.068,543.128z"/>
	<path fill="#000101" d="M236.832,559.595c16.819-4.159,33.722-3.385,50.522-0.241c6.181,1.157,11.954,1.226,18.141-0.031
		c18.218-3.701,36.361-2.681,54.258,2.38c0.787,0.23,1.599,0.41,2.363,0.709c0.548,0.215,1.034,0.59,2.247,1.307
		c-46.366,0-91.964,0-138.149,0C229.664,561.278,233.32,560.609,236.832,559.595z"/>
	<path fill="#E20000" d="M296.834,490.63c-12.682,0.146-25.168-0.648-36.96-6.127c-8.742-4.062-15.039-10.173-17.991-19.478
		c0.477-1.8,1.457,0.264,2.099-0.272c2.101,0.418,3.995,1.303,5.763,2.499c12.551,8.489,26.431,13.279,41.456,14.872
		C297.46,483.461,298.952,485.713,296.834,490.63z"/>
	<path fill="#E20000" d="M358.133,516.943c5.076-5.486,10.864-5.564,18.62-0.251c4.167,4.967,5.629,10.384,2.408,16.386
		c-3.208,5.978-8.466,7.911-14.955,7.163c-4.749-1.568-8.726-3.984-10.124-9.228c1.023-1.587,3.204-1.125,4.355-2.479
		c0.825-0.658,1.576-1.39,2.235-2.214c1.449-1.882,1.489-3.764,0.009-5.647C359.725,519.501,358.356,518.61,358.133,516.943z"/>
	<path fill="#E20000" d="M219.673,517.097c4.252-2.735,8.675-4.805,13.897-3.138c2.004,0.64,4.306,1.067,4.498,3.871
		c-0.333,1.809-1.761,2.953-2.663,4.414c-0.893,0.957-1.211,2.033-0.666,3.283c0.533,1.307,1.198,2.483,2.697,2.887
		c0.583,0.193,1.122,0.474,1.657,0.764c1.194,0.773,2.921,0.426,3.823,1.809c-1.327,5.401-5.542,7.892-10.108,10.031
		c-7.41,0.253-13.329-1.993-16.09-9.565C214.75,526.055,216.768,521.486,219.673,517.097z"/>
	<path fill="#E20000" d="M354.037,465.863c-6.846,16.553-21.119,21.76-37.138,23.919c-5.853,0.789-11.799,1.73-17.773,0.786
		c-2.638-4.692-0.453-7.837,5.749-8.276c16.801-1.316,32.128-6.703,45.86-16.543c0.928-0.665,2.055-1.051,3.09-1.567
		C353.895,464.742,353.966,465.302,354.037,465.863z"/>
	<path fill="#FB0203" d="M288.921,312.919c-1.858,0.598-3.694,1.281-5.582,1.759c-1.004,0.254-2.452,0.938-2.959-0.517
		c-0.439-1.259,0.754-2.06,1.78-2.588c1.872-0.964,3.795-1.827,5.697-2.733c1.198-1.58,2.462-3.081,4.449-3.714
		c1.339-0.46,2.719-0.832,3.903-1.662c0.471-0.358,0.939-0.72,1.405-1.085c0.637-0.479,1.31-0.871,2.145-0.836
		c1.622,1.111,0.401-1.138,1.192-1.018c0.333-0.248,0.69-0.443,1.074-0.596c0.8-0.303,1.602-0.591,2.41-0.873
		c3.149-0.45,5.337-3.493,8.741-3.241c2.199,0.512,5.212-3.349,6.336,0.075c0.896,2.728-3.105,3.137-5.086,4.39
		c-0.824,0.521-1.658,1.026-2.488,1.538c-0.667,2.046-2.711,1.978-4.204,2.76c-0.563,0.32-1.128,0.634-1.712,0.911
		c-0.391,0.174-0.798,0.304-1.212,0.408c-1.701,0.232-3.146,1.015-4.452,2.097c-0.963,0.44-1.976,0.793-2.671,1.665
		c-0.774,0.822-1.692,1.415-2.762,1.77C292.78,311.342,291.388,314.312,288.921,312.919z"/>
	<path fill="#FB0909" d="M298,302.888c-0.306,0.328-0.612,0.656-0.919,0.984c-0.847,0.667-1.848,0.557-2.826,0.563
		c-2.153-1.803-5.164-2.638-6.321-5.574c0.239-2.226-1.991-2.883-2.8-4.429c-0.629-1.201-2.84-2.23-1.495-3.677
		c1.562-1.68,2.888,0.407,4.219,1.184c1.541,0.9,2.386,2.797,4.375,3.057C295.695,296.5,297.697,299.073,298,302.888z"/>
	<path fill="#FC0707" d="M298,302.888c-1.923-2.63-3.845-5.261-5.768-7.891c-0.811-1.977-1.596-3.964-2.44-5.926
		c-0.594-1.379-1.523-3.004,0.371-3.815c1.71-0.732,2.624,0.876,3.325,2.196c0.926,1.745,1.755,3.543,2.625,5.318
		c1.041,0.566,1.71,1.463,2.23,2.492c1.15,2.058,2.074,4.177,1.649,6.629C299.328,302.223,298.664,302.556,298,302.888z"/>
	<path fill="#FD0606" d="M304.009,299.877c-0.426,0.805-1.167,0.992-1.991,1.017c-1.428-1.488-1.323-3.324-1.19-5.17
		c0.05-0.514,0.169-1.015,0.333-1.505c0.321-1.007,1.011-1.75,1.774-2.44c1.03-2.583,1.165-7.574,4.102-6.68
		c3.883,1.182,0.065,4.935-0.169,7.586c-0.085,0.966-0.468,1.906-0.715,2.857C306.594,297.558,305.264,298.699,304.009,299.877z"/>
	<path fill="#FE0A0A" d="M304.009,299.877c0.538-1.532,0.832-3.186,2.145-4.335c1.656-1.613,3.293-3.247,4.977-4.83
		c0.957-0.899,2.166-2.305,3.376-1.451c1.405,0.992,0.925,2.661-0.178,3.938c-0.655,0.758-1.296,1.511-1.154,2.616
		C310.288,297.548,307.827,300.242,304.009,299.877z"/>
	<path fill="#FD0B0B" d="M302.007,294.008c0.002,0.29,0.001,0.581-0.003,0.871c-1.337,1.874,0.297,4.248-1.032,6.124
		c-0.209,0.426,0.449,1.809-0.98,0.888c-0.969-2.079-1.937-4.158-2.906-6.238c0.899-3.586-0.016-7.29,0.711-10.887
		c1.102-2.324,2.194-2.087,3.28,0.012C301.96,287.797,301.088,290.993,302.007,294.008z"/>
	<path fill="#F10208" d="M306.011,304.891c0.434-0.37,0.868-0.74,1.302-1.11c3.786-0.819,7.581-0.447,11.377-0.098
		c1.283-0.19,2.172,0.463,2.942,1.373c-0.405,3.227-4.023,1.858-5.361,3.749C312.415,308.641,308.273,309.23,306.011,304.891z"/>
	<path fill="#EF0007" d="M293.077,305.847c-2.092,0.384-2.945,2.928-5.22,2.992c-2.033-2.109-4.86-0.93-7.245-1.707
		c-1.656-0.539-3.363-0.526-2.463-2.976c0.974-0.161,1.948-0.322,2.922-0.483c1.797-0.529,3.765,0.011,5.501-0.892
		c1.084-0.156,2.146-0.034,3.198,0.241C291.112,303.678,293.056,303.643,293.077,305.847z"/>
	<path fill="#FD0606" d="M290.031,303.903c-1.083-0.039-2.165-0.077-3.248-0.116c-0.514-0.674-1.718-0.082-2.038-1.112
		c-1.406-1.708-5.684-1.669-4.805-3.891c1.086-2.744,4.251-0.424,6.518-0.023c0.483,0.085,0.983,0.069,1.475,0.099
		c1.958,1.682,5.057,1.924,6.06,4.809C292.741,304.911,291.39,304.473,290.031,303.903z"/>
	<path fill="#68004C" d="M318.69,303.683c-3.793,0.033-7.586,0.066-11.378,0.099c1.542-0.655,3.083-1.309,4.624-1.964
		C313.826,303.748,316.702,302.108,318.69,303.683z"/>
	<path fill="#F37F7F" d="M297.797,284.767c-0.171,3.634,1.201,7.369-0.711,10.888c-0.324-0.962-0.649-1.923-0.974-2.884
		C298.348,290.455,295.798,287.132,297.797,284.767z"/>
	<path fill="#FA4747" d="M302.007,294.008c-1.815-2.925-0.811-6.134-0.93-9.23c1.977,1.973-0.396,5.101,1.859,7
		C303.216,292.767,302.75,293.445,302.007,294.008z"/>
	<path fill="#7E215F" d="M284.745,302.676c0.794,0.162,1.705,0.108,2.038,1.112c-1.906-0.038-3.811-0.076-5.715-0.113
		C282.105,302.64,283.512,302.979,284.745,302.676z"/>
	<path fill="#FEFEFE" d="M277.013,373.045c1.326-0.055,2.653-0.11,3.979-0.165c10.309,2.581,16.519,9.1,18.792,19.46
		c0.124,0.567,0.786,1.017,1.197,1.521c3.681,0.574,3.372,3.519,3.373,6.042c0.001,2.528,0.283,5.464-3.388,6.038
		c-1.791-2.353-2.035-0.501-2.452,0.9c-2.308,7.745-6.956,13.931-13.064,19.019c-8.178,6.813-19.224,7.947-27.378,3.041
		c-7.53-4.53-11.985-16.453-9.725-26.486C251.868,386.778,260.972,376.505,277.013,373.045z"/>
	<path fill="#FEFEFE" d="M300.965,405.94c2.879-3.596,2.885-8.484,0.015-12.079c0.906-10.756,11.693-19.379,22.366-17.881
		c17.821,2.502,31.486,23.162,28.056,40.719c-3.086,15.796-20.691,24.879-37.132,11.78
		C307.141,422.8,301.797,415.577,300.965,405.94z"/>
	<path fill="#913A0E" d="M304.875,482.292c-4.609,0.89-6.705,3.525-5.749,8.277c0-0.002-0.174,0.373-0.174,0.373
		c-0.251,0.283-0.56,0.462-0.936,0.524c-0.374-0.055-0.695-0.214-0.952-0.494c0,0-0.228-0.339-0.228-0.341
		c1.044-4.775-1.834-6.949-5.636-8.509C295.759,482.179,300.317,482.236,304.875,482.292z"/>
	<path fill="#403933" d="M294.037,458.736c-2.192-0.198-4.45-0.247-6.608-3.31c3.254,0.97,5.522,1.645,7.79,2.321
		C295.072,458.374,294.455,458.436,294.037,458.736z"/>
	<path fill="#302B26" d="M298.723,457.733c2.089-0.511,4.177-1.022,6.265-1.533c-1.31,2.07-3.112,2.438-5.02,2.511
		C299.519,458.428,298.897,458.366,298.723,457.733z"/>
	<path fill="#292520" d="M298.723,457.733c0.415,0.326,0.83,0.652,1.245,0.978c-1.977,0.009-3.954,0.017-5.931,0.026
		c0.394-0.329,0.788-0.659,1.182-0.988C296.387,457.743,297.555,457.738,298.723,457.733z"/>
	<path fill="#E00000" d="M361.099,526.71c-0.114,1.491-0.998,2.198-2.41,2.368c-1.605,2.188-3.668,1.319-5.672,0.85
		c-0.321-0.048-0.643-0.065-0.967-0.052c-0.942-1.468-2.397-2.62-2.745-4.456c-0.478-1.574-0.219-3.057,0.546-4.478
		c1.054-1.331,2.108-2.663,3.162-3.994c1.342-0.936,2.694-0.812,4.053-0.039c0.355,0.011,0.71,0.023,1.066,0.034
		c1.27,0.671,2.244,1.629,2.862,2.934C363.209,522.121,363.419,524.396,361.099,526.71z"/>
	<path fill="#DF0000" d="M235.002,521.885c0.07-2.071,1.449-3.152,3.066-4.055c0.301-0.2,0.601-0.399,0.901-0.598
		c1.454-1.522,2.71-0.889,3.909,0.359c2.067,0.162,2.664,1.998,3.742,3.286c1.519,2.064,1.326,4.023-0.359,5.891
		c-0.775,1.039-1.55,2.078-2.325,3.117c-2.011,0.718-4.012,0.901-5.988-0.123c-0.248-0.289-0.495-0.578-0.743-0.867
		c-1.593-0.579-2.47-1.764-2.852-3.37C233.929,524.196,234,522.957,235.002,521.885z"/>
	<path fill="#010000" d="M298.063,491.001c0.292-0.083,0.588-0.103,0.888-0.059c0.043,18.312,0.096,36.623,0.094,54.935
		c0,0.734,0.717,2.153-1.09,2.051c-0.959-4.584-0.372-9.222-0.407-13.831c-0.097-12.752-0.053-25.505-0.009-38.258
		C297.546,494.227,297.054,492.52,298.063,491.001z"/>
	<path fill="#351400" d="M298.063,491.001c-0.036,18.976-0.071,37.951-0.107,56.927c-1.394-1.147-0.937-2.744-0.938-4.179
		c-0.007-17.593,0.023-35.186,0.045-52.778C297.397,490.982,297.73,490.992,298.063,491.001z"/>
	<path fill="#080300" d="M290.61,514.984c1.669,0.392,3.256,1.154,3.089,3.138c-0.136,1.618-1.551,2.618-3.133,2.593
		c-1.816-0.028-3.273-1.144-3.126-3.06C287.562,516.077,288.92,515.196,290.61,514.984z"/>
	<path fill="#090300" d="M291.71,499.788c-1.815-0.208-3.273-1.077-3.275-2.976c-0.001-1.653,1.39-2.686,2.967-2.729
		c1.801-0.048,3.288,0.984,3.3,2.896C294.712,498.666,293.238,499.378,291.71,499.788z"/>
	<path fill="#040200" d="M293.395,540.452c-0.566,1.798-1.816,2.646-3.699,2.44c-1.694-0.185-2.81-1.092-2.532-2.908
		c0.277-1.81,1.712-2.204,3.315-2.194C292.237,537.802,293.202,538.679,293.395,540.452z"/>
	<path fill="#290F00" d="M357.067,516.909c-1.351,0.013-2.702,0.026-4.053,0.039c1.935-2.349-0.278-4.704,0.009-7.055
		c0.305-0.467,0.607-0.465,0.906,0.007C354.924,512.258,354.6,515.208,357.067,516.909z"/>
	<path fill="#5E1000" d="M349.852,520.942c-0.005,1.666-0.011,3.332-0.016,4.998c-0.296,0.469-0.562,0.429-0.801-0.048
		C347.183,523.891,347.781,522.294,349.852,520.942z"/>
	<path fill="#301100" d="M243.814,506.346c0.44,1.895,0.106,3.566-1.486,5.052C241.728,509.255,243.25,507.931,243.814,506.346z"/>
	<path fill="#301100" d="M353.928,509.898c-0.302-0.006-0.604-0.008-0.906-0.007c-0.774-1.408-1.516-2.824-1.143-5.043
		C353.315,506.544,353.677,508.197,353.928,509.898z"/>
	<path fill="#2E0A00" d="M246.261,526.767c0.908-1.915,0.891-3.887,0.361-5.891C248.683,522.973,249.263,524.979,246.261,526.767z"
		/>
	<path fill="#230800" d="M353.018,529.927c1.879-0.36,3.942,0.499,5.672-0.85c-0.482,3.155-3.084,1.261-4.607,1.936
		C353.728,530.651,353.373,530.289,353.018,529.927z"/>
	<path fill="#280400" d="M237.948,529.761c1.996,0.041,3.993,0.082,5.988,0.123c-0.34,0.367-0.68,0.734-1.019,1.102
		C241.259,530.583,239.219,531.731,237.948,529.761z"/>
	<path fill="#351400" d="M349.035,525.891c0.267,0.012,0.535,0.028,0.801,0.048c0.688,1.34,2.261,2.183,2.214,3.937
		C350.373,529.057,349.148,527.895,349.035,525.891z"/>
	<path fill="#341200" d="M242.878,517.59c-1.303-0.121-2.606-0.243-3.909-0.361C240.451,515.396,241.822,514.781,242.878,517.59z"/>
	<path fill="#F40205" d="M299.986,307.73c0.688-2.683,2.872-2.724,5.014-2.839c0.726,0.789,1.142,1.718,1.269,2.778
		c-0.216,3.307,3.068,5.942,1.831,9.447c0.365,2.419,3.494,5.746,0.991,6.906c-2.677,1.241-3.25-3.197-4.741-5.156
		c-0.194-0.255-0.289-0.584-0.43-0.879c-1.585-0.776-1.995-2.338-2.554-3.801c-0.393-1.236-0.82-2.469-0.766-3.795
		C302.009,309.138,299.527,308.77,299.986,307.73z"/>
	<path fill="#F30206" d="M305.009,307.897c-0.003-1.002-0.006-2.004-0.009-3.006c0.337,0,0.674,0,1.011,0
		c2.842,2.82,7.026,2.119,10.26,3.913c0.795,0.189,1.634,0.275,2.374,0.591c1.18,0.503,2.862,0.972,2.3,2.659
		c-0.594,1.785-2.192,1.464-3.756,1.115c-2.721-0.606-5.167-2.255-8.077-2.109C306.873,311.135,306.011,309.426,305.009,307.897z"/>
	<path fill="#F40005" d="M294.992,310.881c0.659-0.61,1.318-1.221,1.977-1.831c2.346-0.504,1.978,1.569,2.593,2.717
		c0.087,0.496,0.092,0.994,0.036,1.493c-0.64,2.298,0.19,5.123-2.384,6.737c-1.297,1.989-1.222,6.379-4.19,5.328
		c-2.584-0.915,0.155-4.277,0.426-6.564c0.114-0.964,0.361-1.911,0.548-2.866C293.126,313.985,294.587,312.538,294.992,310.881z"/>
	<path fill="#F50105" d="M305.009,307.897c1.367,1.055,2.735,2.109,4.102,3.164c2.002,1.942,4.027,3.861,5.996,5.836
		c0.849,0.851,1.495,1.923,0.545,3.038c-0.959,1.125-2.07,0.544-3.112-0.047c-1.519-0.862-2.29-2.924-4.441-2.771
		C307.151,314.016,305.078,311.292,305.009,307.897z"/>
	<path fill="#F80103" d="M294.992,310.881c1.922,2.118-0.777,3.32-0.994,5.013c-2.784,0.624-4.035,3.344-6.332,4.63
		c-0.807,0.452-1.631,1.583-2.58,0.75c-1.099-0.965-0.336-2.132,0.259-3.139c1.074-1.819,3.371-2.799,3.575-5.216
		C291.178,312.934,292.143,309.101,294.992,310.881z"/>
	<path fill="#FA0002" d="M298.958,313.008c0.013-0.375,0.026-0.75,0.039-1.126c-0.329-1.669,0.37-2.286,1.998-1.952
		c0.771,1.275,1.118,2.662,1.093,4.147c0.871,2.957,0.506,5.922,0.054,8.888c-0.365,1.324,0.449,3.421-1.477,3.732
		c-1.751,0.283-1.711-1.543-1.875-2.819C298.333,320.247,298.139,316.62,298.958,313.008z"/>
	<path fill="#A73133" d="M298.958,313.008c-0.056,3.625-0.111,7.25-0.168,10.873c-1.127-1.051-0.101-2.975-1.578-3.883
		C298.675,317.887,297.071,315.012,298.958,313.008z"/>
	<path fill="#7B0843" d="M302.142,322.965c-0.018-2.963-0.037-5.927-0.055-8.889c0.611,1.304,1.221,2.608,1.832,3.911
		C302.059,319.195,303.697,321.65,302.142,322.965z"/>
	<path fill="#430100" d="M361.099,526.71c1.391-2.3,1.074-4.573-0.105-6.833C364.52,522.101,364.073,524.386,361.099,526.71z"/>
	<path fill="#780100" d="M235.002,521.885c-0.075,1.363-0.15,2.727-0.225,4.09c-0.224-0.031-0.448-0.062-0.672-0.093
		C232.678,524.162,231.804,522.567,235.002,521.885z"/>
	<path fill="#490100" d="M234.105,525.881c0.223,0.04,0.448,0.071,0.673,0.093c0.808,0.973,1.617,1.946,2.427,2.919
		C234.383,529.73,234.578,527.463,234.105,525.881z"/>
	<path fill="#CD1D1C" d="M300.995,309.931c-0.98,0.329-1.594,1.033-1.998,1.952c-0.676-0.946-1.352-1.891-2.028-2.835
		c0.404-1.817,1.607-1.801,3.016-1.316C300.62,308.327,302.161,308.507,300.995,309.931z"/>
	<path fill="#A83233" d="M290.031,303.903c1.321-0.077,2.642-0.153,3.962-0.231c1.029,0.066,2.058,0.133,3.087,0.2
		c-1.002,1.333-2.357,1.951-4.004,1.975C292.062,305.199,291.046,304.551,290.031,303.903z"/>
	<path fill="#BA2929" d="M300.972,301.003c0.447-2.024-0.847-4.341,1.032-6.123c0.005,2.005,0.009,4.009,0.014,6.014
		C301.67,300.93,301.321,300.967,300.972,301.003z"/>
	<path fill="#111010" d="M286.228,403.43c0.007,1.9-0.857,3.279-2.785,3.412c-2.148,0.148-3.408-1.139-3.438-3.287
		c-0.027-1.949,1.228-3.14,3.062-3.179C284.899,400.336,286.12,401.427,286.228,403.43z"/>
	<path fill="#151413" d="M316.602,403.953c-0.412,1.912-1.293,3.19-3.33,3.083c-1.974-0.103-3.101-1.353-3.046-3.186
		c0.062-2.038,1.237-3.374,3.515-3.17C315.786,400.863,316.399,402.304,316.602,403.953z"/>
</g>
</svg>
