<svg id="Capa_1" data-name="Capa 1" xmlns="http://www.w3.org/2000/svg" viewBox="0 0 221.56 91.79"><defs><style>.cls-1{fill:#044262;}.cls-2{fill:#0582bb;}.cls-3{fill:#f8b133;}.cls-3,.cls-6{stroke:#055a81;}.cls-4,.cls-6{fill:#fff;}.cls-5{fill:#055a81;}.cls-6{stroke-width:0.97px;}.cls-7{fill:#1e1e1c;}.cls-8{fill:#cdcdb8;}.cls-9{fill:#be1823;}.cls-10{fill:#b2b390;}</style></defs><title>coche2</title><polyline class="cls-1" points="8.9 77.16 29.96 76.66 69.49 79.08 165.21 78.25 202.61 82.85 206.96 72.85 200.76 47.88 29.51 47.88"/><path class="cls-2" d="M268.42,451.1s-1.22-27.75-78.52-21.48l5.48,26s-6.69,9-1.83,12.53l23.27-.66a20.54,20.54,0,1,1,39.53,2.41l95.72-.83a20.53,20.53,0,1,1,37.39,4.6l5.57.74-1.22-10.74-.61-9,6.09-18.8s9.13-4.48,9.13-14.32C408.42,421.56,319.55,418,268.42,451.1Z" transform="translate(-186.85 -390.79)"/><ellipse class="cls-3" cx="3.96" cy="45.35" rx="3.46" ry="1.97"/><ellipse class="cls-3" cx="4.97" cy="48.7" rx="3.46" ry="1.97"/><ellipse class="cls-3" cx="5.99" cy="51.87" rx="3.46" ry="1.97"/><path class="cls-4" d="M258.33,468H347.1s-7.52-7.37.36-11.05c0,0-9.67-1.06-6.8,6.84Z" transform="translate(-186.85 -390.79)"/><path class="cls-2" d="M341.46,426l-6.69-24.17,8.78.77s-61.74-41.05-122,29.67l28.61,7.16s-7.91-39.39,79.13-37.6Z" transform="translate(-186.85 -390.79)"/><path class="cls-4" d="M400.31,424.75s-71.4-4.36-131.13,28.5c0,0,60.52-28.5,125.39-26.76Z" transform="translate(-186.85 -390.79)"/><path class="cls-4" d="M267.4,452.67s-1-18.91-45.1-21.81C222.31,430.85,257.91,434.63,267.4,452.67Z" transform="translate(-186.85 -390.79)"/><path class="cls-5" d="M335,462.85s-.74-.9.25-5.37l-79.94,5.82Z" transform="translate(-186.85 -390.79)"/><ellipse class="cls-6" cx="56.91" cy="32.12" rx="3.96" ry="5.82"/><polyline class="cls-2" points="146.96 36.72 139.9 30.78 141.71 24.54 133.83 37.91 138.88 33.16 145.55 37.31"/><path class="cls-5" d="M294.95,432.17l-1.73-13.57c1.21-2.08,4.85-.59,4.85-.59l3.58,13.47,15.2-1.59h.4c-25,4.45-48.48,19.61-48.48,19.61a17.14,17.14,0,0,0-11.72-13.37Z" transform="translate(-186.85 -390.79)"/><path class="cls-2" d="M219.08,429.88s-6.26-18.72-13.74-23.47c0,0,9.49,11,12.12,23.47Z" transform="translate(-186.85 -390.79)"/><ellipse class="cls-2" cx="18.89" cy="15.63" rx="1.21" ry="1.78"/><path class="cls-5" d="M397.28,435.75s-10.82-2.39-45.26,2.4c0,0,41.77-2.22,41.19.34s-16.39,2.31-16.39,2.31,16,.6,14.76,3.34-6.71,2.1-6.71,2.1l7.52,3.89s3.83-8.94,4.89-14" transform="translate(-186.85 -390.79)"/><path class="cls-5" d="M194.08,433s25.62-5.57,51.81,9.41c0,0-32.31-1.93-48.9,7.49,0,0,8.59-9.42,31.44-10.27,0,0-15.72-4.07-32.16,1.28,0,0,1.89-4.5,25-4.92C221.29,436,205.14,431.51,194.08,433Z" transform="translate(-186.85 -390.79)"/><path class="cls-5" d="M336.81,400.37s-69.15-5.26-82.26,21C254.54,421.41,259.65,392.1,336.81,400.37Z" transform="translate(-186.85 -390.79)"/><path class="cls-3" d="M404.93,428.33c2.42-3.58,3.17-5.72,1.54-5.75-1.89,0-5.7,2.91-8.12,6.48s-2.21,6.88-.64,6.48S402.51,431.91,404.93,428.33Z" transform="translate(-186.85 -390.79)"/><ellipse class="cls-7" cx="187.06" cy="71.61" rx="19.16" ry="19.28"/><ellipse class="cls-8" cx="187.06" cy="71.61" rx="13.24" ry="13.33"/><path class="cls-9" d="M374.87,452.65c-.53-3.87-1.39-3.87-1.92,0a6.71,6.71,0,0,1-7.86,5.78c-3.8-.69-4.06.14-.59,1.84a6.82,6.82,0,0,1,3,9.35c-1.82,3.44-1.12,4,1.55,1.14a6.65,6.65,0,0,1,9.72,0c2.67,2.81,3.37,2.3,1.55-1.14a6.82,6.82,0,0,1,3-9.35c3.47-1.7,3.21-2.53-.59-1.84A6.71,6.71,0,0,1,374.87,452.65Z" transform="translate(-186.85 -390.79)"/><ellipse class="cls-10" cx="187.05" cy="71.61" rx="4.5" ry="4.53"/><ellipse class="cls-7" cx="52.95" cy="72.51" rx="19.15" ry="19.28"/><ellipse class="cls-8" cx="52.95" cy="72.51" rx="13.24" ry="13.33"/><path class="cls-9" d="M240.76,453.55c-.53-3.87-1.39-3.87-1.92,0a6.71,6.71,0,0,1-7.86,5.78c-3.8-.69-4.06.14-.59,1.84a6.82,6.82,0,0,1,3,9.35c-1.82,3.44-1.12,4,1.55,1.14a6.65,6.65,0,0,1,9.72,0c2.67,2.81,3.37,2.3,1.55-1.14a6.82,6.82,0,0,1,3-9.35c3.47-1.7,3.21-2.53-.59-1.84A6.71,6.71,0,0,1,240.76,453.55Z" transform="translate(-186.85 -390.79)"/><ellipse class="cls-10" cx="52.95" cy="72.51" rx="4.5" ry="4.53"/></svg>