<?xml version="1.0" encoding="utf-8"?>
<!-- Generator: Adobe Illustrator 21.0.2, SVG Export Plug-In . SVG Version: 6.00 Build 0)  -->
<svg version="1.1" id="Capa_1" xmlns="http://www.w3.org/2000/svg" xmlns:xlink="http://www.w3.org/1999/xlink" x="0px" y="0px"
	 viewBox="0 0 271.3 112.4" style="enable-background:new 0 0 271.3 112.4;" xml:space="preserve">
<style type="text/css">
	.st0{fill:#FFFFFF;}
	.st1{fill:#893342;}
	.st2{fill:#F8B133;stroke:#055A81;}
	.st3{fill:#000202;}
	.st4{fill:#FFFFFF;stroke:#661C26;stroke-width:0.97;}
	.st5{fill:#1E1E1C;}
	.st6{fill:#CDCDB8;}
	.st7{fill:#BE1823;}
	.st8{fill:#B2B390;}
</style>
<title>Coche</title>
<polyline class="st0" points="10.8,94.5 36.6,93.9 85,96.8 202.2,95.8 248,101.5 253.4,89.2 245.8,58.6 36,58.6 "/>
<path class="st1" d="M99.8,73.9c0,0-1.5-34-96.2-26.3l6.7,31.8c0,0-8.2,11-2.2,15.4l28.5-0.8C33.7,80.3,42.5,67,56.1,64.1
	C69.7,61.3,83,70,85.8,83.6c0.9,4.4,0.6,9-0.8,13.3l117.2-1c-3.9-13.3,3.7-27.3,17-31.2s27.3,3.7,31.2,17c2,6.7,1.1,13.9-2.4,19.9
	l6.8,0.9l-1.5-13.1l-0.8-11l7.5-23c0,0,11.2-5.5,11.2-17.5C271.3,37.7,162.4,33.3,99.8,73.9z"/>
<ellipse class="st2" cx="4.7" cy="55.5" rx="4.2" ry="2.4"/>
<ellipse class="st2" cx="6" cy="59.6" rx="4.2" ry="2.4"/>
<ellipse class="st2" cx="7.2" cy="63.5" rx="4.2" ry="2.4"/>
<path class="st0" d="M87.4,94.5h108.7c0,0-9.2-9,0.4-13.5c0,0-11.8-1.3-8.3,8.4L87.4,94.5z"/>
<path class="st1" d="M189.2,43.2L181,13.6l10.8,0.9c0,0-75.6-50.3-149.4,36.3l35,8.8c0,0-9.7-48.2,96.9-46L189.2,43.2z"/>
<path class="st0" d="M261.3,41.6c0,0-87.5-5.3-160.6,34.9c0,0,74.1-34.9,153.6-32.8L261.3,41.6z"/>
<path class="st0" d="M98.5,75.8c0,0-1.2-23.2-55.2-26.7C43.3,49.1,86.9,53.7,98.5,75.8z"/>
<path class="st3" d="M181.4,88.3c0,0-0.9-1.1,0.3-6.6l-97.9,7.1L181.4,88.3z"/>
<ellipse class="st4" cx="69.6" cy="39.3" rx="4.8" ry="7.1"/>
<polyline class="st3" points="179.9,45 171.2,37.7 173.5,30.1 163.8,46.4 170,40.6 178.2,45.7 "/>
<path class="st3" d="M132.3,52.7l-2.1-16.6c1.5-2.6,5.9-0.7,5.9-0.7l4.4,16.5l18.6-1.9h0.5c-30.7,5.5-59.4,24-59.4,24
	c-1.4-7.7-6.9-14-14.4-16.4L132.3,52.7z"/>
<path class="st1" d="M39.4,47.9c0,0-7.7-22.9-16.8-28.8c0,0,11.6,13.5,14.9,28.8H39.4z"/>
<ellipse class="st3" cx="23" cy="19.1" rx="1.5" ry="2.2"/>
<path class="st0" d="M257.6,55.1c0,0-13.3-2.9-55.4,2.9c0,0,51.2-2.7,50.5,0.4s-20.1,2.8-20.1,2.8s19.6,0.7,18.1,4.1
	s-8.2,2.6-8.2,2.6l9.2,4.8c0,0,4.7-10.9,6-17.2"/>
<path class="st0" d="M8.7,51.7c0,0,31.4-6.8,63.5,11.5c0,0-39.6-2.4-59.9,9.2c0,0,10.5-11.5,38.5-12.6c0,0-19.2-5-39.4,1.6
	c0,0,2.3-5.5,30.7-6C42.1,55.3,22.3,49.9,8.7,51.7z"/>
<path class="st0" d="M183.5,11.7c0,0-84.7-6.4-100.8,25.8C82.8,37.5,89,1.6,183.5,11.7z"/>
<path class="st2" d="M267,46c3-4.4,3.9-7,1.9-7c-2.3,0-7,3.6-10,7.9s-2.7,8.4-0.8,7.9S264,50.3,267,46z"/>
<ellipse class="st5" cx="229" cy="87.7" rx="23.5" ry="23.6"/>
<path class="st6" d="M212.8,87.7c0.1-9,7.4-16.2,16.3-16.1c9,0.1,16.2,7.4,16.1,16.3c-0.1,8.9-7.3,16.1-16.2,16.1
	C220,104,212.8,96.7,212.8,87.7z"/>
<path class="st7" d="M230.2,75.8c-0.6-4.7-1.7-4.7-2.4,0c-0.6,4.5-4.7,7.7-9.2,7.2c-0.2,0-0.3,0-0.5-0.1c-4.6-0.8-5,0.2-0.7,2.3
	c4.1,2,5.9,7,3.8,11.2c0,0.1-0.1,0.2-0.1,0.3c-2.2,4.2-1.4,4.8,1.9,1.4c3.1-3.3,8.2-3.5,11.5-0.4c0.1,0.1,0.3,0.3,0.4,0.4
	c3.3,3.4,4.1,2.8,1.9-1.4c-2.2-4.1-0.7-9.1,3.4-11.3c0.1-0.1,0.2-0.1,0.3-0.1c4.2-2.1,3.9-3.1-0.7-2.3c-4.5,0.8-8.7-2.1-9.6-6.6
	C230.2,76.1,230.2,75.9,230.2,75.8z"/>
<ellipse class="st8" cx="229" cy="87.7" rx="5.5" ry="5.6"/>
<ellipse class="st5" cx="64.7" cy="88.8" rx="23.5" ry="23.6"/>
<ellipse class="st6" cx="64.7" cy="88.8" rx="16.2" ry="16.3"/>
<path class="st7" d="M65.9,76.9c-0.6-4.7-1.7-4.7-2.4,0c-0.6,4.5-4.7,7.7-9.2,7.2c-0.2,0-0.3,0-0.5-0.1c-4.6-0.8-5,0.2-0.7,2.3
	c4.1,2,5.9,7,3.8,11.2c0,0.1-0.1,0.2-0.1,0.3c-2.2,4.2-1.4,4.8,1.9,1.4c3.1-3.3,8.2-3.5,11.5-0.4c0.1,0.1,0.3,0.3,0.4,0.4
	c3.3,3.4,4.1,2.8,1.9-1.4c-2.2-4.1-0.7-9.1,3.4-11.3c0.1-0.1,0.2-0.1,0.3-0.1c4.2-2.1,3.9-3.1-0.7-2.3c-4.5,0.8-8.8-2.1-9.6-6.6
	C66,77.2,65.9,77,65.9,76.9z"/>
<ellipse class="st8" cx="64.7" cy="88.8" rx="5.5" ry="5.6"/>
</svg>
