<?xml version="1.0" encoding="utf-8"?>
<!-- Generator: Adobe Illustrator 21.0.2, SVG Export Plug-In . SVG Version: 6.00 Build 0)  -->
<svg version="1.1" id="Capa_1" xmlns="http://www.w3.org/2000/svg" xmlns:xlink="http://www.w3.org/1999/xlink" x="0px" y="0px"
	 viewBox="0 0 12.125 14.5" enable-background="new 0 0 12.125 14.5" xml:space="preserve">
<g id="Automóvil">
</g>
<rect x="-1113.875" y="84.192" fill="#B0B256" width="550" height="199.116"/>
<path fill="#495E67" d="M-563.875,264.103c-0.242,0.01-0.487,0.018-0.743,0.018c-9.882,0-9.882-7.567-19.766-7.567
	c-9.887,0-9.887,7.567-19.771,7.567c-9.886,0-9.886-7.567-19.771-7.567c-9.883,0-9.883,7.567-19.768,7.567
	c-9.886,0-9.886-7.567-19.769-7.567s-9.884,7.567-19.771,7.567c-9.883,0-9.883-7.567-19.766-7.567
	c-9.888,0-9.888,7.567-19.772,7.567c-9.882,0-9.882-7.567-19.768-7.567c-9.379,0-9.863,6.81-18.336,7.505
	c-8.477-0.694-8.961-7.505-18.344-7.505c-9.889,0-9.889,7.567-19.775,7.567c-9.885,0-9.885-7.567-19.773-7.567
	c-9.886,0-9.886,7.567-19.771,7.567c-9.888,0-9.888-7.567-19.773-7.567s-9.885,7.567-19.771,7.567s-9.886-7.567-19.769-7.567
	s-9.883,7.567-19.768,7.567c-9.881,0-9.881-7.567-19.765-7.567c-9.887,0-9.887,7.567-19.771,7.567
	c-9.886,0-9.886-7.567-19.771-7.567c-9.883,0-9.883,7.567-19.768,7.567c-9.886,0-9.886-7.567-19.769-7.567
	s-9.884,7.567-19.771,7.567c-9.883,0-9.883-7.567-19.766-7.567c-9.888,0-9.888,7.567-19.772,7.567
	c-9.882,0-9.882-7.567-19.768-7.567c-9.379,0-9.864,6.81-18.336,7.505v24.44h550v-24.396L-563.875,264.103L-563.875,264.103z"/>
<g>
	<g>
		<g>
			<polyline fill="#014262" points="-1099.909,233.551 -1078.848,233.051 -1039.317,235.465 -943.594,234.64 -906.199,239.236 
				-901.851,229.239 -908.047,204.271 -1079.293,204.271 			"/>
			<path fill="#0081BA" d="M-1027.242,216.704c0,0-1.218-27.752-78.521-21.483l5.475,25.958c0,0-6.694,8.952-1.825,12.533
				l23.267-0.66c-0.285-1.362-0.438-2.775-0.438-4.225c0-11.341,9.194-20.534,20.536-20.534c11.341,0,20.535,9.193,20.535,20.534
				c0,2.326-0.392,4.556-1.104,6.639l95.724-0.825c-0.545-1.844-0.842-3.792-0.842-5.813c0-11.341,9.193-20.534,20.537-20.534
				c11.34,0,20.533,9.193,20.533,20.534c0,3.8-1.035,7.356-2.834,10.409l5.566,0.742l-1.218-10.739l-0.608-8.954l6.088-18.8
				c0,0,9.13-4.476,9.13-14.323C-887.241,187.162-976.112,183.583-1027.242,216.704z"/>
			<ellipse fill="#F8B133" stroke="#005980" cx="-1104.844" cy="201.735" rx="3.461" ry="1.971"/>
			<ellipse fill="#F8B133" stroke="#005980" cx="-1103.831" cy="205.087" rx="3.461" ry="1.971"/>
			<ellipse fill="#F8B133" stroke="#005980" cx="-1102.818" cy="208.254" rx="3.462" ry="1.97"/>
			<path fill="#FFFFFF" d="M-1037.326,233.551h88.77c0,0-7.518-7.369,0.358-11.054c0,0-9.667-1.055-6.803,6.843L-1037.326,233.551z"
				/>
			<path fill="#0081BA" d="M-954.199,191.636l-6.694-24.166l8.781,0.769c0,0-61.738-41.054-122.002,29.665l28.609,7.162
				c0,0-7.913-39.388,79.133-37.596L-954.199,191.636z"/>
			<path fill="#FFFFFF" d="M-895.349,190.346c0,0-71.399-4.363-131.129,28.503c0,0,60.521-28.503,125.392-26.761L-895.349,190.346z"
				/>
			<path fill="#FFFFFF" d="M-1028.256,218.267c0,0-0.992-18.907-45.096-21.812C-1073.352,196.455-1037.75,200.235-1028.256,218.267z
				"/>
			<path fill="#005980" d="M-960.633,228.45c0,0-0.742-0.896,0.246-5.369l-79.941,5.817L-960.633,228.45z"/>
			<ellipse fill="#FFFFFF" stroke="#005980" stroke-width="0.9747" cx="-1051.896" cy="188.505" rx="3.959" ry="5.818"/>
			<polyline fill="#0081BA" points="-961.841,193.111 -968.91,187.167 -967.092,180.929 -974.971,194.297 -969.922,189.544 
				-963.254,193.702 			"/>
			<path fill="#005980" d="M-1000.711,197.769l-1.733-13.572c1.214-2.081,4.848-0.594,4.848-0.594l3.584,13.47l15.203-1.587h0.402
				c-25.047,4.454-48.481,19.608-48.481,19.608c-2.22-10.994-11.716-13.369-11.716-13.369L-1000.711,197.769z"/>
			<path fill="#0081BA" d="M-1076.578,195.486c0,0-6.263-18.718-13.737-23.471c0,0,9.495,10.991,12.122,23.471H-1076.578z"/>
			<ellipse fill="#0081BA" cx="-1089.912" cy="172.015" rx="1.212" ry="1.781"/>
			<path fill="#005980" d="M-898.381,201.354c0,0-10.822-2.395-45.259,2.396c0,0,41.768-2.222,41.188,0.345
				c-0.584,2.566-16.389,2.311-16.389,2.311s16.038,0.597,14.758,3.336c-1.278,2.737-6.708,2.102-6.708,2.102l7.522,3.886
				c0,0,3.828-8.935,4.888-14.03"/>
			<path fill="#005980" d="M-1101.582,198.61c0,0,25.616-5.566,51.814,9.415c0,0-32.312-1.926-48.903,7.491
				c0,0,8.587-9.415,31.437-10.272c0,0-15.718-4.067-32.164,1.284c0,0,1.892-4.496,25.033-4.923
				C-1074.365,201.605-1090.521,197.111-1101.582,198.61z"/>
			<path fill="#005980" d="M-958.852,165.967c0,0-69.152-5.262-82.264,21.041C-1041.115,187.008-1036.01,157.703-958.852,165.967z"
				/>
		</g>
		<path fill="#F8B133" stroke="#005980" d="M-890.729,193.933c2.42-3.577,3.166-5.715,1.544-5.751
			c-1.886-0.04-5.705,2.905-8.123,6.48c-2.42,3.577-2.211,6.88-0.637,6.48C-896.384,200.734-893.144,197.511-890.729,193.933z"/>
	</g>
	<g>
		<g>
			<ellipse fill="#1D1D1B" cx="-921.75" cy="227.999" rx="19.156" ry="19.282"/>
			<ellipse fill="#CECEB8" cx="-921.75" cy="227.999" rx="13.238" ry="13.327"/>
			<g>
				<path fill="#BD1622" d="M-920.791,218.253c-0.527-3.868-1.39-3.868-1.917,0s-4.066,6.469-7.864,5.781
					c-3.799-0.688-4.064,0.141-0.592,1.842c3.473,1.701,4.824,5.91,3.004,9.354c-1.82,3.442-1.123,3.955,1.551,1.14
					c2.673-2.815,7.047-2.815,9.721,0c2.673,2.816,3.369,2.303,1.548-1.14c-1.821-3.443-0.47-7.652,3.004-9.354
					c3.474-1.701,3.208-2.53-0.591-1.842C-916.727,224.722-920.265,222.122-920.791,218.253z"/>
			</g>
			<ellipse fill="#B1B28F" cx="-921.751" cy="227.998" rx="4.504" ry="4.535"/>
		</g>
	</g>
	<g>
		<g>
			<ellipse fill="#1D1D1B" cx="-1055.855" cy="228.897" rx="19.155" ry="19.282"/>
			<ellipse fill="#CECEB8" cx="-1055.855" cy="228.896" rx="13.239" ry="13.327"/>
			<g>
				<path fill="#BD1622" d="M-1054.896,219.151c-0.526-3.868-1.389-3.868-1.916,0s-4.066,6.469-7.865,5.78
					c-3.799-0.688-4.064,0.142-0.592,1.844c3.473,1.701,4.825,5.91,3.004,9.352c-1.82,3.442-1.122,3.955,1.551,1.14
					c2.674-2.815,7.048-2.815,9.721,0s3.369,2.303,1.549-1.14c-1.821-3.442-0.47-7.651,3.004-9.352
					c3.473-1.702,3.207-2.531-0.592-1.844C-1050.831,225.62-1054.369,223.019-1054.896,219.151z"/>
			</g>
			<ellipse fill="#B1B28F" cx="-1055.855" cy="228.896" rx="4.504" ry="4.534"/>
		</g>
	</g>
</g>
<rect x="-521.875" y="103.192" fill="#B0B256" width="550" height="199.116"/>
<path fill="#495E67" d="M28.125,352.466c-0.242,0.01-0.487,0.018-0.743,0.018c-9.882,0-9.882-7.567-19.766-7.567
	c-9.887,0-9.887,7.567-19.771,7.567c-9.886,0-9.886-7.567-19.771-7.567c-9.883,0-9.883,7.567-19.768,7.567
	c-9.886,0-9.886-7.567-19.769-7.567s-9.884,7.567-19.771,7.567c-9.883,0-9.883-7.567-19.766-7.567
	c-9.888,0-9.888,7.567-19.772,7.567c-9.882,0-9.882-7.567-19.768-7.567c-9.379,0-9.863,6.811-18.336,7.505
	c-8.477-0.694-8.961-7.505-18.344-7.505c-9.889,0-9.889,7.567-19.775,7.567c-9.885,0-9.885-7.567-19.773-7.567
	c-9.886,0-9.886,7.567-19.77,7.567c-9.888,0-9.888-7.567-19.773-7.567s-9.885,7.567-19.771,7.567s-9.886-7.567-19.77-7.567
	c-9.883,0-9.883,7.567-19.769,7.567c-9.881,0-9.881-7.567-19.765-7.567c-9.887,0-9.887,7.567-19.771,7.567
	c-9.886,0-9.886-7.567-19.772-7.567c-9.883,0-9.883,7.567-19.768,7.567c-9.886,0-9.886-7.567-19.77-7.567s-9.884,7.567-19.771,7.567
	c-9.883,0-9.883-7.567-19.766-7.567c-9.888,0-9.888,7.567-19.773,7.567c-9.882,0-9.882-7.567-19.768-7.567
	c-9.379,0-9.864,6.811-18.336,7.505v24.44h550v-24.396L28.125,352.466L28.125,352.466z"/>
<g>
	<g>
		<g>
			<polyline fill="#014262" points="-495.252,49.951 -474.19,49.451 -434.66,51.865 -338.936,51.04 -301.542,55.635 
				-297.193,45.638 -303.39,20.67 -474.636,20.67 			"/>
			<path fill="#0081BA" d="M-422.585,33.103c0,0-1.218-27.752-78.521-21.483l5.475,25.958c0,0-6.694,8.952-1.825,12.533l23.267-0.66
				c-0.285-1.362-0.438-2.775-0.438-4.225c0-11.341,9.194-20.534,20.536-20.534c11.341,0,20.535,9.193,20.535,20.534
				c0,2.326-0.392,4.556-1.104,6.639l95.724-0.825c-0.545-1.844-0.842-3.792-0.842-5.813c0-11.341,9.193-20.534,20.537-20.534
				c11.34,0,20.533,9.193,20.533,20.534c0,3.8-1.035,7.356-2.834,10.409l5.566,0.742l-1.218-10.739l-0.608-8.954l6.088-18.8
				c0,0,9.13-4.476,9.13-14.323C-282.584,3.561-371.455-0.018-422.585,33.103z"/>
			<ellipse fill="#F8B133" stroke="#005980" cx="-500.187" cy="18.134" rx="3.461" ry="1.971"/>
			<ellipse fill="#F8B133" stroke="#005980" cx="-499.174" cy="21.486" rx="3.461" ry="1.971"/>
			<ellipse fill="#F8B133" stroke="#005980" cx="-498.161" cy="24.654" rx="3.462" ry="1.97"/>
			<path fill="#FFFFFF" d="M-432.669,49.951h88.77c0,0-7.518-7.369,0.358-11.054c0,0-9.667-1.055-6.803,6.843L-432.669,49.951z"/>
			<path fill="#0081BA" d="M-349.542,8.036l-6.694-24.166l8.781,0.769c0,0-61.738-41.054-122.002,29.665l28.609,7.162
				c0,0-7.913-39.388,79.133-37.596L-349.542,8.036z"/>
			<path fill="#FFFFFF" d="M-290.691,6.746c0,0-71.399-4.363-131.129,28.503c0,0,60.521-28.503,125.392-26.761L-290.691,6.746z"/>
			<path fill="#FFFFFF" d="M-423.599,34.667c0,0-0.992-18.907-45.096-21.812C-468.694,12.854-433.093,16.634-423.599,34.667z"/>
			<path fill="#005980" d="M-355.976,44.849c0,0-0.742-0.895,0.246-5.369l-79.941,5.817L-355.976,44.849z"/>
			<ellipse fill="#FFFFFF" stroke="#005980" stroke-width="0.9747" cx="-447.239" cy="4.905" rx="3.959" ry="5.818"/>
			<polyline fill="#0081BA" points="-357.184,9.51 -364.253,3.567 -362.435,-2.671 -370.314,10.697 -365.265,5.944 -358.597,10.101 
							"/>
			<path fill="#005980" d="M-396.054,14.169l-1.732-13.572c1.214-2.081,4.848-0.594,4.848-0.594l3.584,13.47l15.203-1.587h0.402
				c-25.047,4.454-48.48,19.607-48.48,19.607c-2.22-10.994-11.716-13.369-11.716-13.369L-396.054,14.169z"/>
			<path fill="#0081BA" d="M-471.921,11.885c0,0-6.263-18.718-13.737-23.471c0,0,9.495,10.991,12.122,23.471H-471.921z"/>
			<ellipse fill="#0081BA" cx="-485.254" cy="-11.586" rx="1.212" ry="1.781"/>
			<path fill="#005980" d="M-293.724,17.753c0,0-10.822-2.394-45.259,2.396c0,0,41.768-2.222,41.188,0.345
				c-0.584,2.566-16.389,2.311-16.389,2.311s16.038,0.597,14.758,3.336c-1.278,2.737-6.708,2.102-6.708,2.102l7.522,3.886
				c0,0,3.828-8.935,4.888-14.03"/>
			<path fill="#005980" d="M-496.925,15.009c0,0,25.616-5.566,51.814,9.415c0,0-32.311-1.926-48.903,7.491
				c0,0,8.587-9.415,31.437-10.272c0,0-15.718-4.067-32.164,1.284c0,0,1.892-4.496,25.033-4.923
				C-469.708,18.004-485.863,13.51-496.925,15.009z"/>
			<path fill="#005980" d="M-354.194-17.633c0,0-69.152-5.262-82.264,21.041C-436.458,3.408-431.353-25.898-354.194-17.633z"/>
		</g>
		<path fill="#F8B133" stroke="#005980" d="M-286.072,10.333c2.42-3.577,3.166-5.715,1.544-5.751
			c-1.886-0.04-5.705,2.905-8.123,6.48c-2.42,3.577-2.211,6.88-0.637,6.48C-291.727,17.133-288.487,13.911-286.072,10.333z"/>
	</g>
	<g>
		<g>
			<ellipse fill="#1D1D1B" cx="-317.093" cy="44.399" rx="19.156" ry="19.282"/>
			<ellipse fill="#CECEB8" cx="-317.093" cy="44.398" rx="13.238" ry="13.327"/>
			<g>
				<path fill="#BD1622" d="M-316.134,34.653c-0.527-3.868-1.39-3.868-1.917,0c-0.527,3.868-4.066,6.469-7.864,5.781
					c-3.799-0.688-4.064,0.141-0.592,1.842c3.473,1.701,4.824,5.91,3.004,9.353c-1.82,3.442-1.123,3.955,1.551,1.14
					c2.673-2.815,7.047-2.815,9.721,0c2.673,2.815,3.369,2.303,1.548-1.14c-1.821-3.443-0.47-7.652,3.004-9.353
					s3.208-2.53-0.591-1.842C-312.069,41.122-315.607,38.521-316.134,34.653z"/>
			</g>
			<ellipse fill="#B1B28F" cx="-317.094" cy="44.398" rx="4.504" ry="4.535"/>
		</g>
	</g>
	<g>
		<g>
			<ellipse fill="#1D1D1B" cx="-451.198" cy="45.296" rx="19.155" ry="19.282"/>
			<ellipse fill="#CECEB8" cx="-451.198" cy="45.296" rx="13.239" ry="13.327"/>
			<g>
				<path fill="#BD1622" d="M-450.239,35.55c-0.526-3.868-1.389-3.868-1.916,0c-0.527,3.868-4.066,6.469-7.865,5.78
					c-3.799-0.688-4.064,0.142-0.592,1.844c3.473,1.701,4.825,5.91,3.004,9.353c-1.82,3.442-1.122,3.955,1.551,1.14
					c2.674-2.815,7.048-2.815,9.721,0s3.369,2.303,1.549-1.14c-1.821-3.442-0.47-7.651,3.004-9.353
					c3.473-1.702,3.207-2.531-0.592-1.844C-446.174,42.019-449.712,39.418-450.239,35.55z"/>
			</g>
			<ellipse fill="#B1B28F" cx="-451.198" cy="45.295" rx="4.504" ry="4.534"/>
		</g>
	</g>
</g>
<path fill="#F43B37" stroke="#005980" d="M9.143,6.522c2.42-3.577,3.166-5.715,1.544-5.751c-1.886-0.04-5.705,2.905-8.123,6.48
	c-2.42,3.577-2.211,6.88-0.637,6.48C3.488,13.322,6.727,10.1,9.143,6.522z"/>
<g>
	<g>
		<ellipse fill="#1D1D1B" cx="-172.811" cy="35.242" rx="19.156" ry="19.282"/>
		<ellipse fill="#CECEB8" cx="-172.811" cy="35.241" rx="13.238" ry="13.327"/>
		<g>
			<path fill="#BD1622" d="M-171.852,25.496c-0.527-3.868-1.39-3.868-1.917,0c-0.527,3.868-4.066,6.469-7.864,5.781
				c-3.799-0.688-4.064,0.141-0.592,1.842c3.473,1.701,4.824,5.91,3.004,9.354c-1.82,3.442-1.123,3.955,1.551,1.14
				c2.673-2.815,7.047-2.815,9.721,0c2.673,2.815,3.369,2.303,1.548-1.14s-0.47-7.652,3.004-9.354
				c3.474-1.701,3.208-2.53-0.591-1.842C-167.787,31.964-171.325,29.364-171.852,25.496z"/>
		</g>
		<ellipse fill="#B1B28F" cx="-172.811" cy="35.24" rx="4.504" ry="4.535"/>
	</g>
</g>
</svg>
