<svg id="Capa_1" data-name="Capa 1" xmlns="http://www.w3.org/2000/svg" viewBox="0 0 550 31.95"><defs><style>.cls-1{fill:#4a5f68;}</style></defs><title>Mar</title><path class="cls-1" d="M572,77.79l-.74,0c-9.88,0-9.88-7.57-19.77-7.57s-9.89,7.57-19.77,7.57-9.89-7.57-19.77-7.57-9.88,7.57-19.77,7.57-9.89-7.57-19.77-7.57-9.88,7.57-19.77,7.57-9.88-7.57-19.77-7.57S423,77.8,413.1,77.8s-9.88-7.57-19.77-7.57c-9.38,0-9.86,6.81-18.34,7.51-8.48-.69-9-7.51-18.34-7.51-9.89,0-9.89,7.57-19.78,7.57s-9.88-7.57-19.77-7.57-9.89,7.57-19.77,7.57-9.89-7.57-19.77-7.57-9.88,7.57-19.77,7.57-9.89-7.57-19.77-7.57-9.88,7.57-19.77,7.57-9.88-7.57-19.76-7.57-9.89,7.57-19.77,7.57-9.89-7.57-19.77-7.57-9.88,7.57-19.77,7.57-9.89-7.57-19.77-7.57-9.88,7.57-19.77,7.57-9.88-7.57-19.77-7.57S70,77.8,60.1,77.8s-9.88-7.57-19.77-7.57C31,70.24,30.47,77,22,77.74v24.44H572Z" transform="translate(-22 -70.24)"/></svg>