<svg id="Capa_1" data-name="Capa 1" xmlns="http://www.w3.org/2000/svg" viewBox="0 0 425.2 425.2"><defs><style>.cls-1{fill:#8bcdcf;}.cls-1,.cls-2{stroke:#1d1d1b;stroke-miterlimit:10;}.cls-2{fill:#f2cf3a;}</style></defs><title>Mesa de trabajo 1</title><path class="cls-1" d="M251.47,108c0,59.37-43.73,107.5-43.73,107.5S164,167.38,164,108,207.74.51,207.74.51,251.47,48.64,251.47,108Z"/><path class="cls-1" d="M138.52,122.72c51.46,29.69,71.3,91.59,71.3,91.59s-63.58,13.78-115-15.91-71.3-91.59-71.3-91.59S87.07,93,138.52,122.72Z"/><path class="cls-1" d="M94.79,227.81c51.46-29.69,115-15.91,115-15.91S190,273.81,138.52,303.5s-115,15.91-115,15.91S43.34,257.5,94.79,227.81Z"/><path class="cls-1" d="M164,318.2c0-59.37,43.73-107.5,43.73-107.5s43.73,48.13,43.73,107.5-43.73,107.5-43.73,107.5S164,377.57,164,318.2Z"/><path class="cls-1" d="M277,303.5c-51.46-29.69-71.3-91.59-71.3-91.59s63.58-13.78,115,15.91S392,319.41,392,319.41,328.42,333.18,277,303.5Z"/><path class="cls-1" d="M320.69,198.4c-51.46,29.69-115,15.91-115,15.91S225.5,152.4,277,122.72s115-15.91,115-15.91S372.15,168.72,320.69,198.4Z"/><ellipse class="cls-2" cx="205.65" cy="214.31" rx="43.05" ry="43.02"/></svg>